<svg width="47" height="44" viewBox="0 0 47 44" fill="none" xmlns="http://www.w3.org/2000/svg">
<path d="M39.7635 6.34352C35.4193 2.25289 29.6435 0 23.5 0C17.3565 0 11.5807 2.25289 7.23648 6.34352C2.89245 10.4343 0.5 15.8732 0.5 21.6583C0.5 27.4435 2.89245 32.8823 7.23648 36.9731C11.5807 41.0638 17.3565 43.3167 23.5 43.3167C27.7059 43.3167 31.8211 42.2373 35.4009 40.1954C36.2496 39.7111 36.521 38.6707 36.0068 37.8715C35.4925 37.072 34.3877 36.8167 33.5389 37.3009C30.5208 39.0226 27.0493 39.9326 23.5 39.9326C12.7993 39.9326 4.09375 31.7348 4.09375 21.6583C4.09375 11.5819 12.7993 3.38411 23.5 3.38411C34.2007 3.38411 42.9062 11.5819 42.9062 21.6583C42.9062 25.2615 41.7684 28.7687 39.6156 31.8009C39.0641 32.5777 39.2857 33.6285 40.1107 34.1479C40.9358 34.6675 42.0517 34.4586 42.6031 33.6818C45.1525 30.091 46.5 25.9333 46.5 21.6583C46.5 15.8732 44.1076 10.4343 39.7635 6.34352Z" fill="#1F97EF"/>
<path d="M17.9569 31.6072C18.2286 31.7456 18.5212 31.8111 18.8098 31.8111C19.4485 31.8111 20.0671 31.4896 20.392 30.9234L30.1049 14.0028C30.5768 13.1807 30.2517 12.154 29.3786 11.7097C28.5055 11.2653 27.4152 11.5716 26.9435 12.3936L17.2307 29.3142C16.7587 30.1363 17.0839 31.1629 17.9569 31.6072Z" fill="#1F97EF"/>
<path fill-rule="evenodd" clip-rule="evenodd" d="M16.043 11.5059C18.52 11.5059 20.5352 13.4035 20.5352 15.736C20.5352 18.0685 18.52 19.9661 16.043 19.9661C13.566 19.9661 11.5508 18.0685 11.5508 15.736C11.5508 13.4035 13.566 11.5059 16.043 11.5059ZM15.1453 15.7362C15.1453 16.2027 15.5483 16.5822 16.0437 16.5822C16.5391 16.5822 16.9421 16.2027 16.9421 15.7362C16.9421 15.2697 16.5391 14.8901 16.0437 14.8901C15.5483 14.8901 15.1453 15.2697 15.1453 15.7362Z" fill="#1F97EF"/>
<path fill-rule="evenodd" clip-rule="evenodd" d="M35.3594 27.5807C35.3594 29.9132 33.3442 31.8109 30.8672 31.8109C28.3902 31.8109 26.375 29.9132 26.375 27.5807C26.375 25.2482 28.3902 23.3506 30.8672 23.3506C33.3442 23.3506 35.3594 25.2482 35.3594 27.5807ZM31.7662 27.5804C31.7662 27.1139 31.3631 26.7344 30.8677 26.7344C30.3723 26.7344 29.9693 27.1139 29.9693 27.5804C29.9693 28.0469 30.3723 28.4265 30.8677 28.4265C31.3631 28.4265 31.7662 28.0469 31.7662 27.5804Z" fill="#1F97EF"/>
</svg>
