<svg width="30" height="40" viewBox="0 0 30 40" fill="none" xmlns="http://www.w3.org/2000/svg">
<g clip-path="url(#clip0)">
<path d="M28.7273 28.1473C27.9802 28.0835 27.2952 27.7946 26.8192 27.3427C26.3433 26.8908 26.1145 26.312 26.1818 25.7305V16.6673C26.1818 11.3278 21.6237 7 16 7C10.3763 7 5.81818 11.3291 5.81818 16.6673V25.7369C5.88554 26.3184 5.65668 26.8972 5.18076 27.3491C4.70483 27.801 4.01979 28.0898 3.27273 28.1537H2V30.5705H30V28.1473H28.7273Z" fill="#1F97EF"/>
<path d="M8.36133 32.0381C8.47206 34.2364 9.32308 36.2936 10.7278 37.7588C12.1325 39.2239 13.9763 39.9774 15.855 39.854C17.7361 39.9026 19.557 39.0762 20.9184 37.556C22.2797 36.0359 23.0705 33.946 23.1173 31.7445L8.36133 32.0381Z" fill="#1F97EF"/>
</g>
<defs>
<clipPath id="clip0">
<rect width="30" height="40" fill="white"/>
</clipPath>
</defs>
</svg>
