<svg width="41" height="39" viewBox="0 0 41 39" fill="none" xmlns="http://www.w3.org/2000/svg">
<g clip-path="url(#clip0)">
<path d="M39.2904 16.6733L35.4797 16.2505C35.0936 14.6379 34.4278 13.1061 33.5129 11.7253L36.2071 9.16005C36.3642 9.01276 36.4895 8.8346 36.5751 8.63664C36.6608 8.43868 36.705 8.22515 36.705 8.00931C36.705 7.79348 36.6608 7.57995 36.5751 7.38199C36.4895 7.18403 36.3642 7.00587 36.2071 6.85857L33.7873 4.56724C33.4583 4.26229 33.0269 4.09297 32.5791 4.09297C32.1314 4.09297 31.7 4.26229 31.3709 4.56724L28.6767 7.13421C27.2022 6.24821 25.5937 5.60964 23.9145 5.24365V1.62487C23.9009 1.18275 23.7137 0.76399 23.3939 0.459887C23.074 0.155785 22.6474 -0.00899143 22.2071 0.00148708H18.7904C18.3495 -0.00943824 17.9222 0.155367 17.6019 0.459879C17.2816 0.764392 17.0944 1.18385 17.0812 1.62656V5.24365C15.4046 5.60674 13.7979 6.24126 12.3241 7.12237L9.62988 4.5554C9.30053 4.25034 8.86889 4.08096 8.42083 4.08096C7.97277 4.08096 7.54113 4.25034 7.21178 4.5554L4.79536 6.8535C4.63826 7.0008 4.513 7.17896 4.42736 7.37692C4.34171 7.57488 4.29752 7.78841 4.29752 8.00424C4.29752 8.22007 4.34171 8.4336 4.42736 8.63156C4.513 8.82952 4.63826 9.00768 4.79536 9.15498L7.48962 11.7203C6.57242 13.1009 5.90384 14.6325 5.51439 16.2454H1.70705C1.26628 16.2363 0.839789 16.4026 0.520568 16.7079C0.201348 17.0133 0.0152805 17.433 0.00292969 17.8756V21.1257C0.0170212 21.5678 0.204261 21.9865 0.523973 22.2908C0.843685 22.5951 1.27004 22.7604 1.71042 22.7508H5.52113C5.91105 24.3635 6.57958 25.8951 7.49636 27.276L4.80209 29.8412C4.64509 29.9882 4.51988 30.1661 4.43428 30.3638C4.34867 30.5615 4.30449 30.7747 4.30449 30.9903C4.30449 31.2058 4.34867 31.4191 4.43428 31.6168C4.51988 31.8145 4.64509 31.9923 4.80209 32.1393L7.21851 34.4374C7.54786 34.7425 7.97951 34.9119 8.42757 34.9119C8.87562 34.9119 9.30726 34.7425 9.63662 34.4374L12.3309 31.8738C13.8046 32.7549 15.4113 33.3895 17.0879 33.7526V37.373C17.102 37.8154 17.2895 38.2344 17.6096 38.5387C17.9297 38.843 18.3565 39.0081 18.7971 38.9981H22.2138C22.653 39.0059 23.0776 38.8398 23.3959 38.5357C23.7142 38.2316 23.9005 37.8139 23.9145 37.373V33.7509C25.5913 33.3881 27.198 32.7535 28.6716 31.8721L31.3659 34.4357C31.695 34.7407 32.1263 34.91 32.5741 34.91C33.0219 34.91 33.4532 34.7407 33.7823 34.4357L36.2071 32.1309C36.3641 31.9839 36.4893 31.806 36.575 31.6083C36.6606 31.4106 36.7047 31.1974 36.7047 30.9818C36.7047 30.7663 36.6606 30.553 36.575 30.3553C36.4893 30.1576 36.3641 29.9798 36.2071 29.8328L33.5129 27.2675C34.4301 25.8869 35.0987 24.3552 35.4881 22.7423H39.2988C39.7392 22.7519 40.1655 22.5866 40.4853 22.2823C40.805 21.978 40.9922 21.5594 41.0063 21.1173V17.8756C40.9996 16.981 40.23 16.6733 39.2904 16.6733ZM20.4996 26.0009C18.7354 26.0478 17.0248 25.3895 15.7435 24.1707C14.4623 22.9519 13.7151 21.2722 13.6662 19.5006C13.7651 17.7481 14.528 16.0999 15.7985 14.8942C17.069 13.6886 18.7507 13.0169 20.4987 13.0169C22.2467 13.0169 23.9285 13.6886 25.199 14.8942C26.4695 16.0999 27.2324 17.7481 27.3312 19.5006C27.2823 21.2719 26.5354 22.9513 25.2545 24.1701C23.9736 25.3888 22.2635 26.0473 20.4996 26.0009Z" fill="#1F97EF"/>
</g>
<defs>
<clipPath id="clip0">
<rect width="41" height="39" fill="white"/>
</clipPath>
</defs>
</svg>
