<svg width="47" height="47" viewBox="0 0 47 47" fill="none" xmlns="http://www.w3.org/2000/svg">
<path d="M41.125 25.4583L41.125 21.5417L13.7083 21.5417L13.7083 17.625L9.79167 17.625L9.79167 21.5417L5.875 21.5417L5.875 25.4583L9.79167 25.4583L9.79167 29.375L13.7083 29.375L13.7083 25.4583L41.125 25.4583Z" fill="#1F97EF"/>
<path d="M35.25 17.625L39.1667 17.625L39.1667 13.7083L41.125 13.7083L41.125 9.79167L39.1667 9.79167L39.1667 5.875L35.25 5.875L35.25 9.79167L5.875 9.79167L5.875 13.7083L35.25 13.7083L35.25 17.625Z" fill="#1F97EF"/>
<path d="M31.3333 41.125L31.3333 37.2083L41.125 37.2083L41.125 33.2917L31.3333 33.2917L31.3333 29.375L27.4167 29.375L27.4167 33.2917L5.87501 33.2917L5.87501 37.2083L27.4167 37.2083L27.4167 41.125L31.3333 41.125Z" fill="#1F97EF"/>
</svg>
