<svg width="40" height="40" viewBox="0 0 40 40" fill="none" xmlns="http://www.w3.org/2000/svg">
<path d="M33.7401 22.2837L29.221 20.38V33.0592L33.7502 35.0011L33.7401 22.2837L33.7401 22.2837ZM27.971 20.2506L23.981 21.9613V34.6318L27.971 32.9211V20.2506V20.2506ZM22.731 22.1138L19.0365 20.5299L17.8663 22.0901V32.6986L22.731 34.7843V22.1138H22.731ZM16.6163 22.4104L15.1577 20.4656L12.2766 21.7009V34.3714L16.6163 32.5107V22.4104V22.4104ZM11.0266 21.7009L6.24854 19.6523V32.3228L11.0266 34.3714V21.7009V21.7009Z" fill="#1F97EF"/>
<path fill-rule="evenodd" clip-rule="evenodd" d="M22.9031 13.6431C22.6939 14.2718 22.3859 14.8541 21.9977 15.3719L17.6196 21.2091L17.1215 21.8732L16.6235 21.2091L12.2453 15.3719C11.857 14.8541 11.549 14.2718 11.3397 13.6432C11.1367 13.0335 11.0269 12.3866 11.0269 11.7197C11.0269 10.0368 11.7091 8.51312 12.812 7.41017C13.915 6.30723 15.4387 5.625 17.1216 5.625C18.8043 5.625 20.3279 6.30723 21.4308 7.41017C22.5338 8.51312 23.216 10.0368 23.216 11.7197C23.216 12.3865 23.1061 13.0334 22.9031 13.6431H22.9031ZM17.1215 14.7184C16.2794 14.7184 15.5168 14.3769 14.9648 13.825C14.4128 13.273 14.0713 12.5104 14.0713 11.6683C14.0713 10.8262 14.4128 10.0636 14.9648 9.51161C15.5168 8.95961 16.2793 8.61815 17.1215 8.61815C17.9636 8.61815 18.7261 8.95964 19.2781 9.51164C19.8301 10.0636 20.1715 10.8262 20.1715 11.6683C20.1715 12.5104 19.8301 13.273 19.2781 13.825C18.7262 14.3769 17.9636 14.7184 17.1215 14.7184Z" fill="#1F97EF"/>
</svg>
