<svg width="28" height="28" viewBox="0 0 28 28" fill="none" xmlns="http://www.w3.org/2000/svg">
<path d="M25 0H3C1.344 0 0 1.344 0 3V25C0 26.656 1.344 28 3 28H25C26.656 28 28 26.656 28 25V3C28 1.344 26.656 0 25 0ZM7.938 22.031C7.77224 22.3177 7.49938 22.5268 7.17944 22.6123C6.8595 22.6978 6.5187 22.6528 6.232 22.487C5.9453 22.3212 5.73619 22.0484 5.65068 21.7284C5.56516 21.4085 5.61024 21.0677 5.776 20.781L6.67 19.237C7.676 18.931 8.501 19.168 9.145 19.949L7.938 22.031ZM16.619 18.663H5.25C4.562 18.663 4 18.1 4 17.413C4 16.726 4.563 16.163 5.25 16.163H8.438L12.525 9.088L11.244 6.876C11.0791 6.5891 11.0346 6.24859 11.12 5.92891C11.2054 5.60924 11.414 5.33639 11.7 5.17C11.9869 5.00514 12.3274 4.96055 12.6471 5.046C12.9668 5.13145 13.2396 5.33997 13.406 5.626L13.962 6.588L14.518 5.626C14.6001 5.48404 14.7093 5.35964 14.8395 5.25989C14.9696 5.16015 15.1181 5.08702 15.2766 5.04468C15.435 5.00233 15.6002 4.99161 15.7627 5.01311C15.9253 5.03461 16.082 5.08792 16.224 5.17C16.366 5.25208 16.4904 5.36131 16.5901 5.49146C16.6898 5.62162 16.763 5.77014 16.8053 5.92856C16.8477 6.08698 16.8584 6.25218 16.8369 6.41474C16.8154 6.57731 16.7621 6.73404 16.68 6.876L11.318 16.164H15.199C16.461 16.164 17.168 17.645 16.618 18.664L16.619 18.663ZM22.75 18.663H20.937L22.162 20.782C22.506 21.382 22.299 22.145 21.706 22.488C21.106 22.832 20.343 22.625 20 22.032C17.944 18.476 16.406 15.801 15.375 14.026C14.331 12.213 15.075 10.401 15.819 9.789C16.638 11.208 17.863 13.333 19.5 16.164H22.75C23.0815 16.164 23.3995 16.2957 23.6339 16.5301C23.8683 16.7645 24 17.0825 24 17.414C24 17.7455 23.8683 18.0635 23.6339 18.2979C23.3995 18.5323 23.0815 18.664 22.75 18.664V18.663Z" fill="white"/>
</svg>
