<svg width="28" height="31" viewBox="0 0 28 31" fill="none" xmlns="http://www.w3.org/2000/svg">
<path d="M26.855 13.588L3.36533 0.298644C3.02226 0.101952 2.63247 -0.00110941 2.23585 9.00664e-06C1.83924 0.00112742 1.45005 0.106385 1.10811 0.305009C0.770452 0.494965 0.489915 0.770181 0.295213 1.10249C0.100511 1.43481 -0.00136343 1.81228 1.37804e-05 2.19629V28.8037C-0.00136343 29.1877 0.100511 29.5652 0.295213 29.8975C0.489915 30.2298 0.770452 30.5051 1.10811 30.695C1.45005 30.8936 1.83924 30.9989 2.23585 31C2.63246 31.0011 3.02225 30.8981 3.36533 30.7014L26.855 17.412C27.2017 17.224 27.4908 16.9473 27.6923 16.6109C27.8937 16.2746 28 15.8909 28 15.5C28 15.1091 27.8937 14.7254 27.6923 14.3891C27.4908 14.0527 27.2017 13.776 26.855 13.588ZM2.23987 27.2441V3.75589L14.1222 15.5L2.23987 27.2441ZM15.7061 17.0654L18.3459 19.6747L5.99929 26.6594L15.7061 17.0654ZM5.99775 4.33899L18.346 11.3252L15.7061 13.9346L5.99775 4.33899ZM20.3606 18.5349L17.2899 15.5L20.3608 12.4649L25.7256 15.5L20.3606 18.5349Z" fill="white"/>
</svg>
