<svg width="60" height="33" viewBox="0 0 60 33" fill="none" xmlns="http://www.w3.org/2000/svg">
<path d="M35.8442 12.6045C34.823 9.90878 32.2209 7.99121 29.1729 7.99121C26.1249 7.99121 23.5228 9.90655 22.5016 12.6023C20.5818 13.1084 19.1681 14.8632 19.1793 16.9458C19.1926 19.2736 20.9987 21.1667 23.273 21.3696C23.3778 21.3785 23.467 21.296 23.467 21.1912L23.467 19.8444C23.467 19.7553 23.4001 19.6794 23.3109 19.6683C22.7089 19.5925 22.1403 19.3294 21.7033 18.899C21.1682 18.3751 20.8739 17.6705 20.8739 16.9235C20.8739 16.2992 21.0768 15.7105 21.458 15.22C21.8304 14.7428 22.3544 14.3972 22.9319 14.2456L23.777 14.0226L24.0869 13.2043C24.2787 12.6959 24.5462 12.2188 24.8829 11.7884C25.2151 11.3603 25.6098 10.9857 26.0513 10.6736C26.9677 10.0292 28.0469 9.68803 29.1729 9.68803C30.2989 9.68803 31.3781 10.0292 32.2945 10.6758C32.7382 10.988 33.1307 11.3626 33.4629 11.7907C33.7996 12.221 34.0672 12.6982 34.2589 13.2065L34.5666 14.0226L35.4095 14.2456C36.618 14.5667 37.463 15.6659 37.463 16.9213C37.463 17.6705 37.1687 18.3728 36.6336 18.8968C36.1988 19.3249 35.6324 19.5903 35.0304 19.6661C34.9412 19.6772 34.8765 19.753 34.8765 19.8422L34.8765 21.1912C34.8765 21.296 34.968 21.3785 35.0728 21.3696C37.3404 21.1644 39.142 19.2736 39.1576 16.9503C39.171 14.8677 37.7596 13.1129 35.8442 12.6045Z" fill="white"/>
<path d="M26.1561 19.0153C26.1963 18.2683 26.5062 17.5727 27.0369 17.0398C27.6032 16.4712 28.3747 16.1523 29.1774 16.1523C29.9846 16.1523 30.7449 16.4667 31.318 17.0398C31.3492 17.071 31.3782 17.1022 31.4094 17.1356L30.8519 17.5727C30.8254 17.5932 30.8052 17.6208 30.7936 17.6524C30.7821 17.6839 30.7796 17.718 30.7866 17.7509C30.7936 17.7837 30.8097 17.8139 30.8331 17.838C30.8565 17.8621 30.8862 17.8791 30.9188 17.8871L33.1084 18.4222C33.2199 18.449 33.3292 18.3642 33.3292 18.2505L33.3403 15.9918C33.3403 15.8424 33.1709 15.7577 33.0527 15.8513L32.5354 16.2571C31.7193 15.3206 30.5197 14.7275 29.1797 14.7275C26.7849 14.7275 24.8317 16.625 24.7336 19.0019C24.7291 19.1023 24.8094 19.187 24.912 19.187L25.98 19.187C26.0736 19.1848 26.1517 19.1112 26.1561 19.0153ZM33.4273 19.1848L32.3592 19.1848C32.2656 19.1848 32.1876 19.2583 32.1809 19.3542C32.1407 20.1012 31.8308 20.7969 31.3001 21.3298C30.7338 21.8983 29.9623 22.2172 29.1596 22.2172C28.3524 22.2172 27.5921 21.9028 27.019 21.3298C26.9878 21.2985 26.9588 21.2673 26.9276 21.2339L27.4851 20.7969C27.5116 20.7763 27.5318 20.7487 27.5434 20.7172C27.555 20.6856 27.5574 20.6515 27.5504 20.6186C27.5434 20.5858 27.5273 20.5556 27.5039 20.5315C27.4805 20.5074 27.4508 20.4904 27.4182 20.4825L25.2286 19.9473C25.1171 19.9206 25.0078 20.0053 25.0078 20.119L24.9989 22.38C24.9989 22.5294 25.1684 22.6141 25.2865 22.5204L25.8038 22.1146C26.6199 23.0511 27.8195 23.6442 29.1596 23.6442C31.5543 23.6442 33.5076 21.7467 33.6057 19.3698C33.6101 19.2695 33.5299 19.1848 33.4273 19.1848Z" fill="white"/>
<path fill-rule="evenodd" clip-rule="evenodd" d="M56.2789 27.6949L56.2789 21.6266L59.9355 21.6266L59.9355 10.9546L56.2789 10.9546L56.2789 5.08083C56.2789 2.26875 54.3227 -2.55321e-07 51.9038 -3.65356e-07L4.37891 -2.5272e-06C1.95998 -2.63724e-06 -7.72469e-06 2.26875 -7.84281e-06 5.08083L-8.79252e-06 27.6913C-8.91002e-06 30.4887 1.95997 32.7648 4.37891 32.7648L51.9038 32.7648C54.3265 32.7648 56.2789 30.4887 56.2789 27.6949ZM5.6166 29.424C4.32624 29.424 3.28418 28.2346 3.28418 26.7808L3.28418 5.93253C3.28418 4.48244 4.32624 3.293 5.6166 3.293L50.5382 3.293C51.8285 3.293 52.8743 4.48244 52.8743 5.93253L52.8743 26.7808C52.8743 28.2346 51.8285 29.424 50.5382 29.424L5.6166 29.424Z" fill="white"/>
</svg>
