<svg width="33" height="33" viewBox="0 0 33 33" fill="none" xmlns="http://www.w3.org/2000/svg">
<path d="M17.0984 22.2403C15.1481 20.1206 15.0403 17.1748 17.1418 15.1249C18.9981 13.3143 21.1981 13.0624 23.4976 14.6206L24.6735 15.7569L25.2395 15.1183C26.7448 13.6097 28.8112 13.5794 30.2368 13.8407C30.5888 11.4113 29.728 8.64979 27.8003 6.78144C24.8985 3.97259 20.1976 3.97259 17.2931 6.78144L15.3241 8.69104L13.3556 6.78144C10.4566 3.97259 5.75244 3.97259 2.85174 6.78144C-0.410865 9.94284 -0.410865 15.0677 2.85174 18.2275L15.3241 30.311L20.3769 25.4171L17.0984 22.2403Z" fill="#1F97EF"/>
<path d="M31.2684 15.7513C29.7119 14.2443 27.1896 14.2443 25.6315 15.7513L24.5755 16.7754L23.5206 15.7513C21.9641 14.2443 19.4418 14.2443 17.8853 15.7513C16.1346 17.4475 16.1346 20.197 17.8853 21.891L24.5755 28.3733L31.2684 21.891C33.0174 20.197 33.0174 17.4475 31.2684 15.7513Z" fill="#1F97EF"/>
</svg>
