<svg width="48" height="43" viewBox="0 0 48 43" fill="none" xmlns="http://www.w3.org/2000/svg">
<path d="M13.3681 36.9232L28.0918 22.2005L21.4451 15.5547L6.72465 30.2756C4.88883 32.1114 4.88695 35.087 6.72278 36.9232C8.55719 38.7581 11.5342 38.7581 13.3681 36.9232Z" fill="#1F97EF"/>
<path d="M42.0306 6.04661L35.7702 12.3089C34.5473 13.53 32.5601 13.5328 31.3395 12.3089C30.1171 11.0841 30.1171 9.09926 31.3381 7.87679L37.5985 1.6178C34.1041 -0.050229 29.7989 0.554191 26.9074 3.44469C23.2353 7.11774 23.2372 13.0679 26.9074 16.7382C30.5777 20.4098 36.5293 20.4112 40.2009 16.7401C43.0923 13.8486 43.6968 9.542 42.0306 6.04661Z" fill="#1F97EF"/>
</svg>
