<svg width="43" height="65" viewBox="0 0 43 65" fill="none" xmlns="http://www.w3.org/2000/svg">
<path d="M7.66173 32.467L41.5528 59.6411C42.121 60.0968 42.4851 60.7599 42.5649 61.4844C42.6447 62.2088 42.4338 62.9354 41.9785 63.5042C41.5232 64.0729 40.8608 64.4373 40.137 64.5172C39.4133 64.5972 38.6875 64.386 38.1193 63.9302L1.55131 34.5784C1.23006 34.3221 0.970651 33.9967 0.792359 33.6262C0.614066 33.2557 0.521479 32.8498 0.521479 32.4386C0.521479 32.0274 0.614067 31.6215 0.792359 31.251C0.970651 30.8805 1.23006 30.5551 1.55131 30.2988L38.1193 1.05112C38.3996 0.817078 38.7238 0.641419 39.0729 0.534415C39.4219 0.427411 39.7888 0.391244 40.152 0.427995C40.5152 0.464746 40.8674 0.573678 41.188 0.748441C41.5086 0.923203 41.7911 1.16027 42.019 1.44574C42.2469 1.7312 42.4156 2.05933 42.5152 2.41089C42.6147 2.76244 42.6432 3.13035 42.5989 3.49306C42.5546 3.85578 42.4384 4.20601 42.2572 4.5232C42.0759 4.84039 41.8333 5.11819 41.5434 5.34029L7.66173 32.467Z" fill="#1D1D1B" stroke="#1D1D1B" stroke-miterlimit="10"/>
</svg>
