<svg width="43" height="65" viewBox="0 0 43 65" fill="none" xmlns="http://www.w3.org/2000/svg">
<path d="M35.3383 32.533L1.44717 5.35894C0.87896 4.90316 0.514889 4.2401 0.435066 3.51564C0.35524 2.79117 0.566189 2.06462 1.02151 1.49585C1.47683 0.927071 2.13923 0.56266 2.86297 0.482758C3.58671 0.402855 4.3125 0.614014 4.88071 1.06979L41.4487 30.4216C41.7699 30.6779 42.0293 31.0033 42.2076 31.3738C42.3859 31.7443 42.4785 32.1502 42.4785 32.5614C42.4785 32.9726 42.3859 33.3785 42.2076 33.749C42.0293 34.1195 41.7699 34.4449 41.4487 34.7012L4.88071 63.9489C4.60036 64.1829 4.27617 64.3586 3.92712 64.4656C3.57807 64.5726 3.21119 64.6088 2.84799 64.572C2.48479 64.5353 2.13258 64.4263 1.81198 64.2516C1.49139 64.0768 1.20887 63.8397 0.98098 63.5543C0.75309 63.2688 0.584408 62.9407 0.484829 62.5891C0.385254 62.2376 0.356789 61.8697 0.401089 61.5069C0.445389 61.1442 0.561554 60.794 0.742805 60.4768C0.924057 60.1596 1.16673 59.8818 1.45661 59.6597L35.3383 32.533Z" fill="#1D1D1B" stroke="#1D1D1B" stroke-miterlimit="10"/>
</svg>
