<svg width="46" height="46" viewBox="0 0 46 46" fill="none" xmlns="http://www.w3.org/2000/svg">
<path d="M31.9898 10.1768C31.9898 10.0085 31.8539 9.87207 31.6863 9.87207C31.5187 9.87207 31.3828 10.0085 31.3828 10.1768V14.7891C31.3828 14.9573 31.5187 15.0937 31.6863 15.0937C31.8539 15.0937 31.9898 14.9573 31.9898 14.7891V10.1768Z" fill="#6B6B6B"/>
<path d="M31.9898 17.7012C31.9898 17.5329 31.8539 17.3965 31.6863 17.3965C31.5187 17.3965 31.3828 17.5329 31.3828 17.7012V19.6494C31.3828 19.8177 31.5187 19.9541 31.6863 19.9541C31.8539 19.9541 31.9898 19.8177 31.9898 19.6494V17.7012Z" fill="#6B6B6B"/>
<path d="M29.6447 5.75H16.1033C14.9762 5.75 14.0625 6.66731 14.0625 7.79886V38.2012C14.0625 39.3327 14.9762 40.25 16.1033 40.25H29.6447C30.7718 40.25 31.6856 39.3327 31.6856 38.2012V7.79886C31.6856 6.66731 30.7718 5.75 29.6447 5.75Z" fill="white"/>
<path d="M30.2706 9.87207H15.4805V36.1279H30.2706V9.87207Z" fill="#4786B5"/>
<path d="M25.3206 7.54883H20.4259C20.2813 7.54883 20.1641 7.66653 20.1641 7.81172C20.1641 7.95691 20.2813 8.07461 20.4259 8.07461H25.3206C25.4653 8.07461 25.5825 7.95691 25.5825 7.81172C25.5825 7.66653 25.4653 7.54883 25.3206 7.54883Z" fill="#6B6B6B"/>
<path d="M26.423 8.13065C26.5983 8.13065 26.7405 7.98794 26.7405 7.81191C26.7405 7.63587 26.5983 7.49316 26.423 7.49316C26.2476 7.49316 26.1055 7.63587 26.1055 7.81191C26.1055 7.98794 26.2476 8.13065 26.423 8.13065Z" fill="#919191"/>
<path d="M26.4255 8.03048C26.5462 8.03048 26.644 7.93227 26.644 7.81114C26.644 7.69 26.5462 7.5918 26.4255 7.5918C26.3048 7.5918 26.207 7.69 26.207 7.81114C26.207 7.93227 26.3048 8.03048 26.4255 8.03048Z" fill="#6B6B6B"/>
</svg>
