<svg width="43" height="43" viewBox="0 0 43 43" fill="none" xmlns="http://www.w3.org/2000/svg">
<path d="M32.9479 12.2365C32.9479 12.479 33.0442 12.7116 33.2157 12.883C33.3872 13.0545 33.6197 13.1508 33.8622 13.1508H39.3481C39.5475 13.1612 39.7448 13.1061 39.9099 12.9938C40.075 12.8816 40.1988 12.7184 40.2624 12.5291L42.0911 7.04319C42.1295 6.92312 42.1439 6.79666 42.1334 6.67102C42.123 6.54539 42.0879 6.42304 42.0302 6.31097C41.9724 6.1989 41.8932 6.0993 41.797 6.01785C41.7007 5.93641 41.5894 5.87471 41.4693 5.83629C41.3493 5.79787 41.2228 5.78347 41.0972 5.79392C40.9715 5.80437 40.8492 5.83947 40.7371 5.8972C40.6251 5.95493 40.5255 6.03418 40.444 6.1304C40.3626 6.22663 40.3009 6.33796 40.2624 6.45803L38.9824 10.4627C36.4715 6.36929 32.632 3.26141 28.1053 1.65831C23.5786 0.0552016 18.6389 0.0539688 14.1114 1.65481C9.58391 3.25566 5.74285 6.36162 3.22992 10.4538C0.716993 14.546 -0.315612 19.3766 0.304621 24.1385C0.924854 28.9005 3.16036 33.3054 6.63766 36.6174C10.115 39.9294 14.6235 41.9478 19.41 42.3356C24.1965 42.7233 28.9711 41.4568 32.9361 38.7477C36.9011 36.0385 39.8165 32.0508 41.195 27.4508C41.2299 27.3307 41.2407 27.205 41.2269 27.0807C41.2131 26.9565 41.175 26.8361 41.1147 26.7266C41.0545 26.6171 40.9732 26.5205 40.8756 26.4424C40.778 26.3643 40.666 26.3061 40.5459 26.2713C40.4258 26.2365 40.3001 26.2257 40.1758 26.2394C40.0515 26.2532 39.9312 26.2913 39.8217 26.3516C39.7122 26.4119 39.6156 26.4932 39.5375 26.5908C39.4594 26.6884 39.4012 26.8004 39.3664 26.9205C38.3385 30.3308 36.3823 33.388 33.7164 35.7502C31.0506 38.1124 27.7802 39.6866 24.2709 40.2966C20.7617 40.9066 17.152 40.5284 13.8453 39.2044C10.5387 37.8804 7.66551 35.6627 5.54706 32.7993C3.42861 29.9359 2.1484 26.5397 1.84958 22.9904C1.55076 19.4411 2.2451 15.8786 3.85497 12.7013C5.46483 9.52404 7.92677 6.85718 10.9655 4.99894C14.0042 3.14069 17.4999 2.16433 21.0617 2.17901C24.3355 2.18135 27.5539 3.02309 30.4096 4.62382C33.2653 6.22455 35.6628 8.53078 37.3732 11.3222H33.8622C33.6197 11.3222 33.3872 11.4185 33.2157 11.59C33.0442 11.7615 32.9479 11.994 32.9479 12.2365Z" fill="white"/>
<path d="M15.9966 19.5506C15.4793 20.0655 14.9361 20.5538 14.3691 21.0135L10.145 25.256C9.97791 25.3833 9.84062 25.5456 9.74268 25.7314C9.67679 25.8557 9.63932 25.9931 9.63296 26.1337V26.7737C9.63141 26.8343 9.64192 26.8947 9.6639 26.9512C9.68587 27.0077 9.71887 27.0592 9.76097 27.1029C9.80397 27.1459 9.85544 27.1794 9.9121 27.2015C9.96876 27.2235 10.0294 27.2335 10.0901 27.2309H18.9224C18.9861 27.235 19.0499 27.2257 19.1097 27.2036C19.1695 27.1816 19.2241 27.1473 19.2699 27.1029C19.316 27.0623 19.3517 27.0112 19.374 26.9539C19.3962 26.8966 19.4044 26.8348 19.3979 26.7737V25.9508C19.4044 25.8897 19.3962 25.828 19.374 25.7707C19.3517 25.7134 19.316 25.6623 19.2699 25.6217C19.2241 25.5773 19.1695 25.543 19.1097 25.5209C19.0499 25.4989 18.9861 25.4896 18.9224 25.4937H12.6868L16.4904 21.5987C16.9956 21.1666 17.4663 20.6958 17.8984 20.1906C18.2518 19.7589 18.5413 19.2785 18.7579 18.7643C18.9679 18.254 19.0736 17.7069 19.0687 17.1551C19.0766 16.442 18.907 15.7382 18.575 15.107C18.2515 14.4591 17.7336 13.9284 17.0938 13.5893C16.2918 13.1791 15.3971 12.9837 14.4971 13.0224C13.8013 13.0085 13.1101 13.1393 12.4674 13.4064C11.9132 13.6327 11.4142 13.9758 11.0044 14.4121C10.6283 14.817 10.3307 15.2883 10.1267 15.8019C9.93022 16.2914 9.81889 16.8109 9.79754 17.338C9.79537 17.3906 9.80587 17.443 9.82814 17.4907C9.85042 17.5384 9.88382 17.5801 9.92555 17.6123C10.0054 17.685 10.1101 17.7243 10.2181 17.722H11.2605C11.3724 17.7159 11.4804 17.6779 11.5713 17.6123C11.6307 17.5735 11.681 17.5224 11.7189 17.4624C11.7568 17.4025 11.7813 17.3351 11.7908 17.2648C11.8539 16.8082 12.0028 16.3677 12.2296 15.9665C12.4354 15.5875 12.7467 15.2762 13.1257 15.0704C13.546 14.8423 14.019 14.7287 14.4971 14.7413C14.8365 14.698 15.1812 14.7321 15.5055 14.8409C15.8297 14.9498 16.1252 15.1306 16.3697 15.3698C16.6142 15.6091 16.8014 15.9005 16.9173 16.2223C17.0332 16.5442 17.0748 16.8881 17.0389 17.2282C17.0438 17.6269 16.9562 18.0212 16.7829 18.3803C16.5868 18.8109 16.3211 19.2062 15.9966 19.5506Z" fill="white"/>
<path d="M27.8824 27.1036C27.9254 27.1466 27.9769 27.1802 28.0335 27.2022C28.0902 27.2242 28.1508 27.2342 28.2116 27.2316H29.2905C29.3512 27.2342 29.4118 27.2242 29.4685 27.2022C29.5251 27.1802 29.5766 27.1466 29.6196 27.1036C29.6657 27.063 29.7014 27.0119 29.7237 26.9546C29.746 26.8974 29.7542 26.8356 29.7476 26.7745V23.9035H31.5763C31.637 23.9061 31.6976 23.896 31.7542 23.874C31.8109 23.8519 31.8623 23.8183 31.9053 23.7754C31.9483 23.7324 31.9818 23.6809 32.0039 23.6243C32.026 23.5677 32.036 23.5071 32.0334 23.4463V22.6235C32.0328 22.5017 31.9872 22.3845 31.9054 22.2943C31.8596 22.2499 31.8051 22.2156 31.7452 22.1935C31.6854 22.1715 31.6216 22.1622 31.558 22.1663H29.7293V13.6997C29.7318 13.6406 29.7223 13.5815 29.7013 13.5261C29.6804 13.4708 29.6484 13.4202 29.6074 13.3775C29.5664 13.3348 29.5172 13.3008 29.4627 13.2776C29.4083 13.2544 29.3497 13.2425 29.2905 13.2425H27.8458C27.7061 13.2322 27.5661 13.2568 27.4384 13.3143C27.3106 13.3718 27.1993 13.4603 27.1144 13.5717L21.1164 22.0383C21.038 22.144 20.9763 22.2612 20.9336 22.3857C20.9284 22.471 20.9284 22.5565 20.9336 22.6417V23.4463C20.931 23.5071 20.941 23.5677 20.963 23.6244C20.9851 23.681 21.0186 23.7325 21.0616 23.7755C21.1052 23.8176 21.1568 23.8506 21.2133 23.8726C21.2698 23.8945 21.3301 23.9051 21.3907 23.9035H27.8641V26.7745C27.8291 26.8826 27.8356 27 27.8824 27.1036ZM22.9634 22.2943L27.7727 15.3455V22.2943H22.9634Z" fill="white"/>
</svg>
