<svg width="43" height="43" viewBox="0 0 43 43" fill="none" xmlns="http://www.w3.org/2000/svg">
<path d="M21.2595 0.716797C17.1133 0.716797 13.0602 1.94629 9.61276 4.2498C6.16531 6.55331 3.47835 9.82738 1.89167 13.658C0.304982 17.4886 -0.110168 21.7037 0.698718 25.7702C1.5076 29.8368 3.50419 33.5721 6.43601 36.5039C9.36782 39.4357 13.1032 41.4323 17.1697 42.2412C21.2363 43.0501 25.4513 42.635 29.2819 41.0483C33.1125 39.4616 36.3866 36.7746 38.6901 33.3272C40.9936 29.8797 42.2231 25.8266 42.2231 21.6804C42.2183 16.122 40.0081 10.7926 36.0777 6.86223C32.1473 2.93183 26.8179 0.721624 21.2595 0.716797ZM21.2595 40.8211C17.4739 40.8211 13.7732 39.6985 10.6255 37.5953C7.47785 35.4921 5.02454 32.5027 3.57583 29.0052C2.12712 25.5077 1.74807 21.6592 2.48661 17.9462C3.22516 14.2333 5.04814 10.8228 7.72501 8.1459C10.4019 5.46903 13.8124 3.64605 17.5254 2.9075C21.2383 2.16896 25.0868 2.548 28.5843 3.99672C32.0818 5.44543 35.0712 7.89874 37.1744 11.0464C39.2776 14.1941 40.4002 17.8947 40.4002 21.6804C40.3954 26.7554 38.3772 31.6211 34.7887 35.2096C31.2002 38.7981 26.3345 40.8163 21.2595 40.8211Z" fill="white"/>
<path d="M22.1706 21.864V8.92123C22.1706 8.67949 22.0746 8.44766 21.9036 8.27673C21.7327 8.10579 21.5009 8.00977 21.2591 8.00977C21.0174 8.00977 20.7856 8.10579 20.6146 8.27673C20.4437 8.44766 20.3477 8.67949 20.3477 8.92123V22.265C20.3471 22.3888 20.3728 22.5113 20.4231 22.6245C20.4734 22.7376 20.5471 22.8387 20.6393 22.9213L29.7539 31.4526C29.8335 31.5363 29.9298 31.6024 30.0366 31.6464C30.1434 31.6903 30.2583 31.7113 30.3737 31.7078C30.5544 31.7053 30.7302 31.6491 30.8788 31.5465C31.0275 31.4439 31.1423 31.2995 31.2087 31.1315C31.2751 30.9635 31.2901 30.7796 31.2518 30.6031C31.2135 30.4265 31.1236 30.2654 30.9935 30.1401L22.1706 21.864Z" fill="white"/>
</svg>
