<svg width="43" height="43" viewBox="0 0 43 43" fill="none" xmlns="http://www.w3.org/2000/svg">
<path d="M33.4808 12.3535C33.4808 12.5953 33.5769 12.8271 33.7478 12.998C33.9187 13.169 34.1506 13.265 34.3923 13.265H39.8611C40.0592 13.2724 40.2546 13.2163 40.4185 13.1048C40.5825 12.9932 40.7066 12.8322 40.7725 12.6452L42.5954 7.17645C42.6405 7.0571 42.66 6.92963 42.6527 6.80227C42.6454 6.67491 42.6114 6.55051 42.553 6.43711C42.4946 6.3237 42.413 6.22382 42.3135 6.14393C42.2141 6.06404 42.099 6.00592 41.9757 5.97332C41.7484 5.89772 41.5005 5.91462 41.2855 6.02037C41.0706 6.12612 40.906 6.31222 40.8272 6.53842L39.4965 10.5853C37.5935 7.46312 34.9063 4.89349 31.7022 3.13195C28.498 1.3704 24.8886 0.478333 21.2327 0.54444C17.5769 0.610547 14.002 1.63253 10.8637 3.50876C7.72533 5.38499 5.1328 8.05009 3.34392 11.239C1.55504 14.428 0.63213 18.0297 0.666967 21.686C0.701803 25.3422 1.69317 28.9257 3.54249 32.08C5.39181 35.2343 8.03465 37.8495 11.2082 39.6656C14.3817 41.4817 17.9754 42.4353 21.6318 42.4318C26.1256 42.4019 30.4927 40.94 34.0988 38.2584C37.7048 35.5768 40.3619 31.8152 41.684 27.5203C41.7203 27.4042 41.733 27.282 41.7213 27.161C41.7097 27.0399 41.6739 26.9224 41.6161 26.8154C41.5584 26.7084 41.4798 26.614 41.385 26.5378C41.2902 26.4616 41.1811 26.4052 41.0642 26.3718C40.8321 26.3041 40.5827 26.3314 40.3707 26.4477C40.1588 26.5639 40.0017 26.7596 39.934 26.9916C38.91 30.3891 36.9618 33.435 34.3068 35.7893C31.6519 38.1436 28.3948 39.7135 24.8992 40.3237C21.4037 40.9339 17.8073 40.5604 14.5117 39.245C11.2161 37.9295 8.35111 35.7238 6.23658 32.8743C4.12205 30.0247 2.84126 26.6434 2.53724 23.1081C2.23323 19.5727 2.91795 16.0224 4.51496 12.8537C6.11196 9.68494 8.55837 7.02252 11.581 5.16374C14.6036 3.30495 18.0834 2.32297 21.6318 2.32747C24.8957 2.32806 28.1047 3.16643 30.9518 4.76231C33.7989 6.3582 36.1886 8.65819 37.8923 11.4421H34.3923C34.1506 11.4421 33.9187 11.5381 33.7478 11.709C33.5769 11.88 33.4808 12.1118 33.4808 12.3535Z" fill="white"/>
<path d="M20.7209 10.5306V23.4734L11.8979 31.7312C11.7298 31.9046 11.6357 32.1368 11.6357 32.3783C11.6357 32.6199 11.7298 32.852 11.8979 33.0255C12.0588 33.1996 12.2811 33.3042 12.5177 33.3171C12.7474 33.3226 12.9701 33.2375 13.1375 33.0802L22.2522 24.5307C22.3444 24.4481 22.4181 24.347 22.4684 24.2338C22.5187 24.1207 22.5444 23.9982 22.5438 23.8744V10.5306C22.5438 10.2889 22.4478 10.057 22.2769 9.8861C22.1059 9.71517 21.8741 9.61914 21.6324 9.61914C21.3906 9.61914 21.1588 9.71517 20.9879 9.8861C20.8169 10.057 20.7209 10.2889 20.7209 10.5306Z" fill="white"/>
</svg>
