<svg width="40" height="40" viewBox="0 0 27 28" fill="none" xmlns="http://www.w3.org/2000/svg">
<g clip-path="url(#clip0)">
<path d="M20.7582 9.03405C20.7582 12.4436 16.0142 21.7712 14.025 25.5347C13.9478 25.6922 13.8273 25.8245 13.6776 25.916C13.5279 26.0075 13.3552 26.0544 13.1798 26.0514C13.0044 26.0483 12.8335 25.9953 12.6871 25.8986C12.5407 25.8019 12.4249 25.6655 12.3533 25.5054C10.507 21.7211 6.14881 12.4362 6.14881 9.03526C6.07178 8.02924 6.2035 7.01817 6.5357 6.06544C6.8679 5.1127 7.39342 4.23885 8.07931 3.49868C8.76519 2.75852 9.59666 2.16798 10.5216 1.76414C11.4465 1.3603 12.4448 1.15186 13.4541 1.15186C14.4634 1.15186 15.4618 1.3603 16.3867 1.76414C17.3116 2.16798 18.143 2.75852 18.8289 3.49868C19.5148 4.23885 20.0403 5.1127 20.3725 6.06544C20.7047 7.01817 20.8364 8.02924 20.7594 9.03526L20.7582 9.03405Z" fill="#1F97EF" stroke="#1F97EF" stroke-miterlimit="10" stroke-linecap="round"/>
<path d="M21.4491 17.5144C24.4567 18.5264 26.3885 20.0987 26.3885 21.8651C26.3885 24.9169 20.6175 27.3914 13.4985 27.3914C6.37937 27.3914 0.608398 24.9157 0.608398 21.8639C0.608398 20.0975 2.54141 18.5252 5.55023 17.5132" stroke="#1F97EF" stroke-width="2" stroke-miterlimit="10" stroke-linecap="round"/>
<path d="M16.8134 9.13927C16.8134 10.9464 15.3479 12.4118 13.5395 12.4118C11.7311 12.4118 10.2656 10.9464 10.2656 9.13927C10.2656 7.33217 11.7311 5.8667 13.5395 5.8667C15.3479 5.8667 16.8134 7.33217 16.8134 9.13927Z" fill="white" stroke="#1F97EF" stroke-width="2"/>
</g>
<defs>
<clipPath id="clip0">
<rect width="27" height="28" fill="white"/>
</clipPath>
</defs>
</svg>
