<svg width="40" height="40" viewBox="0 0 34 35" fill="none" xmlns="http://www.w3.org/2000/svg">
<path d="M3.125 2.5H4.75V4.125C4.75 4.34049 4.8356 4.54715 4.98798 4.69952C5.14035 4.8519 5.34701 4.9375 5.5625 4.9375C5.77799 4.9375 5.98465 4.8519 6.13702 4.69952C6.2894 4.54715 6.375 4.34049 6.375 4.125V2.5H8C8.21549 2.5 8.42215 2.4144 8.57452 2.26202C8.7269 2.10965 8.8125 1.90299 8.8125 1.6875C8.8125 1.47201 8.7269 1.26535 8.57452 1.11298C8.42215 0.960603 8.21549 0.875 8 0.875H6.375V-0.75C6.375 -0.965488 6.2894 -1.17215 6.13702 -1.32452C5.98465 -1.4769 5.77799 -1.5625 5.5625 -1.5625C5.34701 -1.5625 5.14035 -1.4769 4.98798 -1.32452C4.8356 -1.17215 4.75 -0.965488 4.75 -0.75V0.875H3.125C2.90951 0.875 2.70285 0.960603 2.55048 1.11298C2.3981 1.26535 2.3125 1.47201 2.3125 1.6875C2.3125 1.90299 2.3981 2.10965 2.55048 2.26202C2.70285 2.4144 2.90951 2.5 3.125 2.5Z" fill="#1F97EF"/>
<path d="M21 2.5H25.875C26.0905 2.5 26.2972 2.4144 26.4495 2.26202C26.6019 2.10965 26.6875 1.90299 26.6875 1.6875C26.6875 1.47201 26.6019 1.26535 26.4495 1.11298C26.2972 0.960603 26.0905 0.875 25.875 0.875H21C20.7845 0.875 20.5778 0.960603 20.4255 1.11298C20.2731 1.26535 20.1875 1.47201 20.1875 1.6875C20.1875 1.90299 20.2731 2.10965 20.4255 2.26202C20.5778 2.4144 20.7845 2.5 21 2.5Z" fill="#1F97EF"/>
<path d="M26.6875 8.1875H20.1875C19.972 8.1875 19.7653 8.2731 19.613 8.42548C19.4606 8.57785 19.375 8.78451 19.375 9V13.0625H27.5V9C27.5 8.78451 27.4144 8.57785 27.262 8.42548C27.1097 8.2731 26.903 8.1875 26.6875 8.1875Z" fill="#1F97EF"/>
<path d="M9.625 9C9.625 8.78451 9.5394 8.57785 9.38702 8.42548C9.23465 8.2731 9.02799 8.1875 8.8125 8.1875H2.3125C2.09701 8.1875 1.89035 8.2731 1.73798 8.42548C1.5856 8.57785 1.5 8.78451 1.5 9V13.0625H9.625V9Z" fill="#1F97EF"/>
<path d="M19.375 19.5625C19.375 20.8554 18.8614 22.0954 17.9471 23.0096C17.0329 23.9239 15.7929 24.4375 14.5 24.4375C13.2071 24.4375 11.9671 23.9239 11.0529 23.0096C10.1386 22.0954 9.625 20.8554 9.625 19.5625V14.6875H1.5V19.5625C1.5 23.0103 2.86964 26.3169 5.30761 28.7549C7.74559 31.1929 11.0522 32.5625 14.5 32.5625C17.9478 32.5625 21.2544 31.1929 23.6924 28.7549C26.1304 26.3169 27.5 23.0103 27.5 19.5625V14.6875H19.375V19.5625Z" fill="#1F97EF"/>
</svg>
