<svg width="43" height="43" viewBox="0 0 39 42" fill="none" xmlns="http://www.w3.org/2000/svg">
<path d="M37.8624 31.1724C37.7516 31.0245 37.5968 30.9155 37.4203 30.8609C37.2437 30.8063 37.0544 30.809 36.8795 30.8686C33.0106 32.1777 28.7973 32.0326 25.0276 30.4603C21.258 28.8879 18.1903 25.9962 16.3984 22.3258C14.8428 18.8548 14.4938 14.9628 15.4072 11.2704C16.3206 7.57794 18.4438 4.29752 21.4382 1.95199C21.5861 1.84116 21.6951 1.68639 21.7497 1.50984C21.8043 1.33328 21.8016 1.14398 21.7421 0.96904C21.6816 0.790095 21.5661 0.634898 21.4119 0.525727C21.2578 0.416556 21.0731 0.359027 20.8842 0.361399C18.055 0.376906 15.2601 0.982556 12.6782 2.13963C10.0963 3.29671 7.78423 4.97976 5.88978 7.0812C3.23661 10.019 1.48665 13.6595 0.849499 17.5664C0.212352 21.4734 0.715041 25.4812 2.29735 29.1097C3.87966 32.7383 6.4745 35.8338 9.77104 38.0254C13.0676 40.2169 16.926 41.4117 20.8842 41.4665C24.2696 41.4644 27.6008 40.6164 30.5752 38.9997C33.5496 37.3829 36.073 35.0487 37.916 32.2089C38.0216 32.054 38.0735 31.8688 38.0638 31.6816C38.0541 31.4944 37.9834 31.3156 37.8624 31.1724ZM20.8842 39.6794C17.2668 39.6355 13.7388 38.549 10.7236 36.55C7.70829 34.5511 5.33376 31.7246 3.88481 28.4098C2.43586 25.095 1.97404 21.4325 2.55474 17.8617C3.13545 14.2909 4.73401 10.9635 7.15868 8.27861C10.0883 5.0333 14.0691 2.92581 18.4 2.3273C15.8018 5.03433 14.0729 8.45688 13.436 12.1546C12.799 15.8523 13.283 19.6561 14.8257 23.0765C16.5669 26.7749 19.4963 29.784 23.1467 31.6238C26.7972 33.4636 30.9585 34.0282 34.9672 33.2276C33.2257 35.2571 31.0649 36.8849 28.6336 37.9987C26.2023 39.1125 23.5585 39.6859 20.8842 39.6794Z" fill="white"/>
</svg>
