<svg width="36" height="34" viewBox="0 0 36 34" fill="none" xmlns="http://www.w3.org/2000/svg">
<path d="M30.1992 4.87907C26.8579 1.73279 22.4155 0 17.6903 0C12.965 0 8.52263 1.73279 5.18131 4.87907C1.84013 8.02548 0 12.2087 0 16.6583C0 21.1079 1.84013 25.2912 5.18131 28.4376C8.52263 31.5839 12.965 33.3167 17.6903 33.3167C20.9252 33.3167 24.0903 32.4865 26.8437 30.916C27.4965 30.5435 27.7052 29.7433 27.3098 29.1285C26.9142 28.5137 26.0645 28.3173 25.4116 28.6897C23.0902 30.0139 20.4202 30.7138 17.6903 30.7138C9.45994 30.7138 2.7641 24.4086 2.7641 16.6583C2.7641 8.90811 9.45994 2.60286 17.6903 2.60286C25.9206 2.60286 32.6164 8.90811 32.6164 16.6583C32.6164 19.4297 31.7412 22.1272 30.0855 24.4594C29.6613 25.0569 29.8317 25.8651 30.4662 26.2646C31.1009 26.6642 31.9591 26.5035 32.3833 25.906C34.3441 23.1443 35.3805 19.9464 35.3805 16.6583C35.3805 12.2087 33.5404 8.02548 30.1992 4.87907Z" fill="#1F97EF"/>
<path d="M13.4265 24.3104C13.6355 24.4168 13.8606 24.4673 14.0825 24.4673C14.5738 24.4673 15.0495 24.2199 15.2995 23.7845L22.77 10.7701C23.133 10.1378 22.8829 9.34812 22.2115 9.00643C21.5399 8.66461 20.7013 8.90017 20.3385 9.5324L12.868 22.5467C12.505 23.179 12.7551 23.9687 13.4265 24.3104Z" fill="#1F97EF"/>
<path fill-rule="evenodd" clip-rule="evenodd" d="M11.9548 8.84961C13.8599 8.84961 15.4099 10.3092 15.4099 12.1032C15.4099 13.8972 13.8599 15.3568 11.9548 15.3568C10.0496 15.3568 8.49963 13.8972 8.49963 12.1032C8.49963 10.3092 10.0496 8.84961 11.9548 8.84961ZM11.2641 12.1033C11.2641 12.4621 11.5741 12.7541 11.9551 12.7541C12.3362 12.7541 12.6462 12.4621 12.6462 12.1033C12.6462 11.7445 12.3362 11.4526 11.9551 11.4526C11.5741 11.4526 11.2641 11.7445 11.2641 12.1033Z" fill="#1F97EF"/>
<path fill-rule="evenodd" clip-rule="evenodd" d="M26.8117 21.2135C26.8117 23.0076 25.2618 24.4671 23.3566 24.4671C21.4515 24.4671 19.9015 23.0076 19.9015 21.2135C19.9015 19.4195 21.4515 17.96 23.3566 17.96C25.2618 17.96 26.8117 19.4195 26.8117 21.2135ZM24.0486 21.2132C24.0486 20.8544 23.7386 20.5625 23.3576 20.5625C22.9765 20.5625 22.6665 20.8544 22.6665 21.2132C22.6665 21.5721 22.9765 21.864 23.3576 21.864C23.7386 21.864 24.0486 21.5721 24.0486 21.2132Z" fill="#1F97EF"/>
</svg>
