<svg width="42" height="39" viewBox="0 0 42 39" fill="none" xmlns="http://www.w3.org/2000/svg">
<path d="M39.2875 16.6723L35.4768 16.2495C35.0907 14.6369 34.4249 13.1052 33.5099 11.7244L36.2042 9.15908C36.3613 9.01178 36.4866 8.83362 36.5722 8.63566C36.6579 8.4377 36.702 8.22417 36.702 8.00834C36.702 7.7925 36.6579 7.57897 36.5722 7.38101C36.4866 7.18305 36.3613 7.00489 36.2042 6.8576L33.7844 4.56626C33.4553 4.26132 33.024 4.09199 32.5762 4.09199C32.1284 4.09199 31.6971 4.26132 31.368 4.56626L28.6737 7.13323C27.1993 6.24723 25.5908 5.60866 23.9116 5.24267V1.62389C23.898 1.18178 23.7108 0.763013 23.3909 0.458911C23.0711 0.154808 22.6445 -0.00996799 22.2041 0.000510516H18.7875C18.3465 -0.0104148 17.9192 0.15439 17.599 0.458903C17.2787 0.763415 17.0915 1.18287 17.0783 1.62558V5.24267C15.4016 5.60576 13.795 6.24029 12.3212 7.1214L9.62695 4.55443C9.2976 4.24936 8.86596 4.07998 8.4179 4.07998C7.96984 4.07998 7.5382 4.24936 7.20885 4.55443L4.79243 6.85252C4.63533 6.99982 4.51007 7.17798 4.42443 7.37594C4.33878 7.5739 4.29459 7.78743 4.29459 8.00326C4.29459 8.2191 4.33878 8.43263 4.42443 8.63059C4.51007 8.82855 4.63533 9.00671 4.79243 9.154L7.48669 11.7193C6.56949 13.0999 5.90091 14.6315 5.51146 16.2445H1.70412C1.26335 16.2354 0.83686 16.4016 0.517639 16.707C0.198418 17.0123 0.0123508 17.432 0 17.8746V21.1247C0.0140915 21.5669 0.201332 21.9855 0.521043 22.2898C0.840755 22.5941 1.26711 22.7594 1.70749 22.7498H5.5182C5.90812 24.3626 6.57665 25.8941 7.49343 27.275L4.79916 29.8403C4.64216 29.9872 4.51695 30.1651 4.43135 30.3628C4.34574 30.5605 4.30156 30.7737 4.30156 30.9893C4.30156 31.2049 4.34574 31.4181 4.43135 31.6158C4.51695 31.8135 4.64216 31.9914 4.79916 32.1383L7.21558 34.4364C7.54494 34.7415 7.97658 34.9109 8.42464 34.9109C8.87269 34.9109 9.30433 34.7415 9.63369 34.4364L12.328 31.8729C13.8017 32.754 15.4084 33.3885 17.085 33.7516V37.3721C17.0991 37.8145 17.2866 38.2334 17.6067 38.5377C17.9267 38.8421 18.3535 39.0072 18.7942 38.9971H22.2109C22.6501 39.0049 23.0747 38.8388 23.393 38.5347C23.7112 38.2306 23.8975 37.813 23.9116 37.3721V33.7499C25.5883 33.3871 27.195 32.7526 28.6687 31.8712L31.3629 34.4348C31.692 34.7397 32.1234 34.909 32.5712 34.909C33.0189 34.909 33.4503 34.7397 33.7794 34.4348L36.2042 32.1299C36.3612 31.9829 36.4864 31.805 36.572 31.6073C36.6576 31.4097 36.7018 31.1964 36.7018 30.9808C36.7018 30.7653 36.6576 30.552 36.572 30.3543C36.4864 30.1567 36.3612 29.9788 36.2042 29.8318L33.5099 27.2665C34.4271 25.8859 35.0957 24.3543 35.4852 22.7414H39.2959C39.7363 22.7509 40.1626 22.5856 40.4823 22.2813C40.802 21.9771 40.9893 21.5584 41.0034 21.1163V17.8746C40.9966 16.98 40.2271 16.6723 39.2875 16.6723ZM20.4966 25.9999C18.7324 26.0468 17.0218 25.3885 15.7406 24.1697C14.4593 22.9509 13.7122 21.2713 13.6633 19.4997C13.7621 17.7471 14.525 16.0989 15.7955 14.8933C17.066 13.6876 18.7478 13.0159 20.4958 13.0159C22.2438 13.0159 23.9256 13.6876 25.1961 14.8933C26.4665 16.0989 27.2295 17.7471 27.3283 19.4997C27.2794 21.271 26.5325 22.9504 25.2516 24.1691C23.9707 25.3879 22.2606 26.0463 20.4966 25.9999Z" fill="#1F97EF"/>
</svg>
