<svg width="30" height="30" viewBox="0 0 30 30" fill="none" xmlns="http://www.w3.org/2000/svg">
<path d="M23.5806 10.5882H15.8292L18.8556 0H12.0968L8.81445 15.3837H16.138L16.0056 29.4158L23.5806 10.5882Z" fill="#1F97EF"/>
<path d="M30.0003 12.0078H26.9121V14.0432H30.0003V12.0078Z" fill="#1F97EF"/>
<path d="M24.8261 2.5205L22.6421 4.53516L24.2016 5.9746L26.3856 3.95995L24.8261 2.5205Z" fill="#1F97EF"/>
<path d="M5.1716 2.52756L3.61182 3.9668L5.79551 5.98173L7.35529 4.54249L5.1716 2.52756Z" fill="#1F97EF"/>
<path d="M3.08824 12.0078H0V14.0432H3.08824V12.0078Z" fill="#1F97EF"/>
<path d="M5.79893 20.0788L3.61523 22.0938L5.17501 23.533L7.3587 21.5181L5.79893 20.0788Z" fill="#1F97EF"/>
<path d="M24.2033 20.0803L22.6436 21.5195L24.8272 23.5345L26.387 22.0952L24.2033 20.0803Z" fill="#1F97EF"/>
</svg>
