<svg width="36" height="17" viewBox="0 0 36 17" fill="none" xmlns="http://www.w3.org/2000/svg">
<path d="M35.0425 12.277L35.0098 4.33008L31.3369 4.34522L31.3697 12.2922L35.0425 12.277Z" fill="#1F97EF"/>
<path d="M29.0029 0.0253906L-0.000176222 0.144979L0.0682958 16.7512L29.0714 16.6316L29.0029 0.0253906ZM25.2353 7.38669L25.2432 9.30161L19.2777 9.32621L19.2698 7.41129L25.2353 7.38669ZM17.5786 8.37574C17.5813 9.03064 16.9397 9.56565 16.1477 9.56891C15.3557 9.57218 14.7097 9.04248 14.707 8.38758C14.7043 7.73268 15.3459 7.19767 16.1379 7.1944C16.9299 7.19114 17.5759 7.72084 17.5786 8.37574ZM12.1072 4.66414L12.1379 12.1323L9.82215 12.1419L9.79135 4.67369L12.1072 4.66414ZM5.15975 4.69278L7.47555 4.68323L7.50634 12.1514L5.19054 12.161L5.15975 4.69278Z" fill="#1F97EF"/>
</svg>
