<svg width="60" height="12" viewBox="0 0 60 12" fill="none" xmlns="http://www.w3.org/2000/svg">
<path d="M22.8115 0.298828H24.0303L24.1826 0.336427L27.4506 2.04041L27.603 2.11992V2.278V2.81693H26.9936V2.43608L23.9502 0.849211H22.8115V0.298828Z" fill="#1F97EF"/>
<path d="M22.8115 11.6861H24.0303L24.1826 11.6485L27.4506 9.94449L27.603 9.86498V9.7069V9.16797H26.9936V9.54882L23.9502 11.1357H22.8115V11.6861Z" fill="#1F97EF"/>
<path d="M1.90659 3.82812C1.26895 3.82812 0.751953 4.47176 0.751953 5.26566C0.751953 6.05955 1.26895 6.70319 1.90659 6.70319H21.5348C22.1725 6.70319 22.6895 6.05955 22.6895 5.26566C22.6895 4.47176 22.1725 3.82812 21.5348 3.82812H1.90659Z" fill="#1F97EF"/>
<path d="M1.90659 5.27344C1.26895 5.27344 0.751953 5.91708 0.751953 6.71097C0.751953 7.50487 1.26895 8.14851 1.90659 8.14851H21.5348C22.1725 8.14851 22.6895 7.50487 22.6895 6.71097C22.6895 5.91708 22.1725 5.27344 21.5348 5.27344H1.90659Z" fill="#1F97EF"/>
<path d="M58.1896 3.82812C58.7758 3.82812 59.251 4.47176 59.251 5.26566C59.251 6.05955 58.7758 6.70319 58.1896 6.70319H40.1468C39.5607 6.70319 39.0854 6.05955 39.0854 5.26566C39.0854 4.47176 39.5607 3.82812 40.1468 3.82812H58.1896Z" fill="#1F97EF"/>
<path d="M58.1896 5.27344C58.7758 5.27344 59.251 5.91708 59.251 6.71097C59.251 7.50487 58.7758 8.14851 58.1896 8.14851H40.1468C39.5607 8.14851 39.0854 7.50487 39.0854 6.71097C39.0854 5.91708 39.5607 5.27344 40.1468 5.27344H58.1896Z" fill="#1F97EF"/>
<path d="M29.314 2.45508H20.2505V9.53468H29.314V2.45508Z" fill="#1F97EF"/>
<path fill-rule="evenodd" clip-rule="evenodd" d="M41.5259 2.45508H36.0549L35.647 3.1909H32.4624V8.79878H35.647L36.0549 9.5346H41.5259V2.45508Z" fill="#1F97EF"/>
<path d="M29.314 3.19531H20.2505V4.26818H29.314V3.19531Z" fill="#1F97EF"/>
<path d="M41.5259 3.19531H32.4624V4.26818H41.5259V3.19531Z" fill="#1F97EF"/>
<path d="M29.314 3.19531H20.2505V3.48575H29.314V3.19531Z" fill="#1F97EF"/>
<path d="M41.5259 3.19531H32.4624V3.48575H41.5259V3.19531Z" fill="#1F97EF"/>
<path d="M29.335 4.2207H24.9873V7.75633H29.335V4.2207Z" fill="#1F97EF"/>
<path d="M36.7882 4.2207H32.4404V7.75633H36.7882V4.2207Z" fill="#1F97EF"/>
<path d="M28.4758 5.2207H24.9702V6.74586H28.4758V5.2207Z" fill="#1F97EF"/>
<path d="M29.318 5.2207H24.9702V5.52584H29.318V5.2207Z" fill="#1F97EF"/>
<path d="M36.0137 5.2207H33.3052V6.74586H36.0137V5.2207Z" fill="#1F97EF"/>
<path d="M34.323 5.5625H30.8174V6.43336H34.323V5.5625Z" fill="#1F97EF"/>
<path d="M36.7849 5.2207H32.4624V5.52584H36.7849V5.2207Z" fill="#1F97EF"/>
<path d="M29.335 6.45703H24.9873V6.76216H29.335V6.45703Z" fill="#1F97EF"/>
<path d="M36.7629 6.45703H32.4404V6.76216H36.7629V6.45703Z" fill="#1F97EF"/>
<path d="M28.4908 5.50977H28.0947V6.49261H28.4908V5.50977Z" fill="#1F97EF"/>
<path d="M33.6792 5.50977H33.2832V6.49261H33.6792V5.50977Z" fill="#1F97EF"/>
</svg>
