<svg width="21" height="24" viewBox="0 0 21 24" fill="none" xmlns="http://www.w3.org/2000/svg">
<g clip-path="url(#clip0)">
<path d="M10.5 20.7506C7.75126 20.7506 5.51574 18.3086 5.51574 15.3034C5.51574 15.1387 5.39926 15.0041 5.2539 15.0041C5.10854 15.0041 4.99206 15.1387 4.99206 15.3034C4.99206 18.6375 7.46218 21.3506 10.5003 21.3506C10.6443 21.3506 10.7621 21.216 10.7621 21.0514C10.7618 20.8853 10.644 20.7506 10.5 20.7506ZM10.5 20.7506C7.75126 20.7506 5.51574 18.3086 5.51574 15.3034C5.51574 15.1387 5.39926 15.0041 5.2539 15.0041C5.10854 15.0041 4.99206 15.1387 4.99206 15.3034C4.99206 18.6375 7.46218 21.3506 10.5003 21.3506C10.6443 21.3506 10.7621 21.216 10.7621 21.0514C10.7618 20.8853 10.644 20.7506 10.5 20.7506ZM10.8566 0.15975C10.6552 -0.05325 10.3438 -0.05325 10.142 0.15975C9.83485 0.486 2.62726 8.223 2.62988 15.3536C2.62988 20.1221 6.16018 24 10.5 24C14.8397 24 18.37 20.1221 18.37 15.3536C18.3714 8.223 11.1638 0.486 10.8566 0.15975ZM10.5 22.8007C6.73899 22.8007 3.67923 19.4603 3.67923 15.3536C3.67791 9.6105 9.04899 3.09263 10.5 1.43587C11.9509 3.09113 17.322 9.60413 17.3194 15.3536C17.3194 19.4606 14.2609 22.8007 10.5 22.8007ZM10.5 20.7506C7.75126 20.7506 5.51574 18.3086 5.51574 15.3034C5.51574 15.1387 5.39926 15.0041 5.2539 15.0041C5.10854 15.0041 4.99206 15.1387 4.99206 15.3034C4.99206 18.6375 7.46218 21.3506 10.5003 21.3506C10.6443 21.3506 10.7621 21.216 10.7621 21.0514C10.7618 20.8853 10.644 20.7506 10.5 20.7506Z" fill="white"/>
<path d="M10.4999 1.43555C9.04897 3.0923 3.67789 9.61017 3.6792 15.3533C3.6792 19.4603 6.73929 22.8004 10.4999 22.8004C14.2606 22.8004 17.3194 19.4599 17.3194 15.3533C17.322 9.6038 11.9509 3.0908 10.4999 1.43555ZM10.4999 21.3507C7.46183 21.3507 4.9917 18.6372 4.9917 15.3034C4.9917 15.1388 5.10818 15.0042 5.25354 15.0042C5.3989 15.0042 5.51539 15.1388 5.51539 15.3034C5.51539 18.3083 7.7509 20.7507 10.4996 20.7507C10.6437 20.7507 10.7615 20.8853 10.7615 21.0518C10.7618 21.2157 10.644 21.3507 10.4999 21.3507Z" fill="#1F97EF"/>
</g>
<defs>
<clipPath id="clip0">
<rect width="21" height="24" fill="white"/>
</clipPath>
</defs>
</svg>
