<svg width="42" height="42" viewBox="0 0 42 42" fill="none" xmlns="http://www.w3.org/2000/svg">
<path d="M29.2175 9.29137C29.2175 9.13773 29.0929 9.01318 28.9393 9.01318C28.7857 9.01318 28.6611 9.13773 28.6611 9.29137V13.5026C28.6611 13.6562 28.7857 13.7808 28.9393 13.7808C29.0929 13.7808 29.2175 13.6562 29.2175 13.5026V9.29137Z" fill="white"/>
<path d="M29.2175 16.1615C29.2175 16.0078 29.0929 15.8833 28.9393 15.8833C28.7857 15.8833 28.6611 16.0078 28.6611 16.1615V17.9403C28.6611 18.094 28.7857 18.2185 28.9393 18.2185C29.0929 18.2185 29.2175 18.094 29.2175 17.9403V16.1615Z" fill="white"/>
<path d="M27.0678 5.25H14.6554C13.6222 5.25 12.7847 6.08754 12.7847 7.1207V34.8793C12.7847 35.9125 13.6222 36.75 14.6554 36.75H27.0678C28.101 36.75 28.9385 35.9125 28.9385 34.8793V7.1207C28.9385 6.08754 28.101 5.25 27.0678 5.25Z" fill="#1F97EF"/>
<path d="M27 10H15V29H27V10Z" fill="white"/>
<path d="M23.1051 6.89258H18.6185C18.4859 6.89258 18.3784 7.00004 18.3784 7.13261C18.3784 7.26517 18.4859 7.37264 18.6185 7.37264H23.1051C23.2377 7.37264 23.3451 7.26517 23.3451 7.13261C23.3451 7.00004 23.2377 6.89258 23.1051 6.89258Z" fill="white"/>
<path d="M24.1157 7.42336C24.2765 7.42336 24.4068 7.29306 24.4068 7.13233C24.4068 6.97161 24.2765 6.84131 24.1157 6.84131C23.955 6.84131 23.8247 6.97161 23.8247 7.13233C23.8247 7.29306 23.955 7.42336 24.1157 7.42336Z" fill="white"/>
<path d="M24.1153 7.33217C24.2259 7.33217 24.3156 7.24251 24.3156 7.13191C24.3156 7.0213 24.2259 6.93164 24.1153 6.93164C24.0047 6.93164 23.915 7.0213 23.915 7.13191C23.915 7.24251 24.0047 7.33217 24.1153 7.33217Z" fill="white"/>
</svg>
