<svg width="60" height="33" viewBox="0 0 60 33" fill="none" xmlns="http://www.w3.org/2000/svg">
<path fill-rule="evenodd" clip-rule="evenodd" d="M56.2789 27.6949L56.2789 21.6266L59.9355 21.6266L59.9355 10.9546L56.2789 10.9546L56.2789 5.08083C56.2789 2.26875 54.3227 -2.55321e-07 51.9038 -3.65356e-07L4.37891 -2.5272e-06C1.95998 -2.63724e-06 -7.72469e-06 2.26875 -7.84281e-06 5.08083L-8.79252e-06 27.6913C-8.91002e-06 30.4887 1.95997 32.7648 4.37891 32.7648L51.9038 32.7648C54.3265 32.7648 56.2789 30.4887 56.2789 27.6949ZM5.6166 29.424C4.32624 29.424 3.28418 28.2346 3.28418 26.7808L3.28418 5.93253C3.28418 4.48244 4.32624 3.293 5.6166 3.293L50.5382 3.293C51.8285 3.293 52.8743 4.48244 52.8743 5.93253L52.8743 26.7808C52.8743 28.2346 51.8285 29.424 50.5382 29.424L5.6166 29.424Z" fill="white"/>
<path fill-rule="evenodd" clip-rule="evenodd" d="M32.1647 4.79492L23.1748 21.5429L27.6346 18.7766L25.3888 28.7691L34.3628 11.7204L29.6237 14.5913L32.1647 4.79492Z" fill="white"/>
</svg>
