<svg width="60" height="33" viewBox="0 0 60 33" fill="none" xmlns="http://www.w3.org/2000/svg">
<path d="M35.8447 12.6055C34.8235 9.90975 32.2214 7.99219 29.1734 7.99219C26.1254 7.99219 23.5233 9.90752 22.502 12.6033C20.5823 13.1094 19.1686 14.8642 19.1798 16.9468C19.1931 19.2746 20.9992 21.1676 23.2735 21.3706C23.3783 21.3795 23.4675 21.297 23.4675 21.1922L23.4675 19.8454C23.4675 19.7562 23.4006 19.6804 23.3114 19.6693C22.7094 19.5935 22.1408 19.3304 21.7038 18.9C21.1687 18.376 20.8743 17.6714 20.8743 16.9245C20.8743 16.3002 21.0773 15.7115 21.4585 15.221C21.8309 14.7438 22.3549 14.3982 22.9324 14.2466L23.7775 14.0236L24.0874 13.2053C24.2791 12.6969 24.5467 12.2198 24.8834 11.7894C25.2156 11.3613 25.6103 10.9867 26.0518 10.6745C26.9682 10.0302 28.0474 9.68901 29.1734 9.68901C30.2994 9.68901 31.3786 10.0302 32.295 10.6768C32.7387 10.9889 33.1312 11.3635 33.4634 11.7916C33.8001 12.222 34.0676 12.6991 34.2594 13.2075L34.5671 14.0236L35.4099 14.2466C36.6185 14.5677 37.4635 15.6669 37.4635 16.9222C37.4635 17.6714 37.1692 18.3738 36.6341 18.8978C36.1993 19.3259 35.6329 19.5912 35.0309 19.667C34.9417 19.6782 34.877 19.754 34.877 19.8432L34.877 21.1922C34.877 21.297 34.9685 21.3795 35.0732 21.3706C37.3409 21.1654 39.1425 19.2746 39.1581 16.9512C39.1715 14.8687 37.7601 13.1139 35.8447 12.6055Z" fill="white"/>
<path d="M26.1561 19.0163C26.1963 18.2693 26.5062 17.5736 27.0369 17.0407C27.6032 16.4722 28.3747 16.1533 29.1774 16.1533C29.9846 16.1533 30.7449 16.4677 31.318 17.0407C31.3492 17.072 31.3782 17.1032 31.4094 17.1366L30.8519 17.5736C30.8254 17.5942 30.8052 17.6218 30.7936 17.6533C30.7821 17.6849 30.7796 17.719 30.7866 17.7519C30.7936 17.7847 30.8097 17.8149 30.8331 17.839C30.8565 17.8631 30.8862 17.8801 30.9188 17.888L33.1084 18.4232C33.2199 18.4499 33.3292 18.3652 33.3292 18.2515L33.3403 15.9928C33.3403 15.8434 33.1709 15.7586 33.0527 15.8523L32.5354 16.2581C31.7193 15.3216 30.5197 14.7285 29.1797 14.7285C26.7849 14.7285 24.8317 16.626 24.7336 19.0029C24.7291 19.1032 24.8094 19.188 24.912 19.188L25.98 19.188C26.0736 19.1857 26.1517 19.1122 26.1561 19.0163ZM33.4273 19.1857L32.3592 19.1857C32.2656 19.1857 32.1876 19.2593 32.1809 19.3552C32.1407 20.1022 31.8308 20.7978 31.3001 21.3307C30.7338 21.8993 29.9623 22.2182 29.1596 22.2182C28.3524 22.2182 27.5921 21.9038 27.019 21.3307C26.9878 21.2995 26.9588 21.2683 26.9276 21.2349L27.4851 20.7978C27.5116 20.7773 27.5318 20.7497 27.5434 20.7181C27.555 20.6866 27.5574 20.6525 27.5504 20.6196C27.5434 20.5868 27.5273 20.5566 27.5039 20.5325C27.4805 20.5084 27.4508 20.4914 27.4182 20.4834L25.2286 19.9483C25.1171 19.9216 25.0078 20.0063 25.0078 20.12L24.9989 22.3809C24.9989 22.5303 25.1684 22.6151 25.2865 22.5214L25.8038 22.1156C26.6199 23.0521 27.8195 23.6452 29.1596 23.6452C31.5543 23.6452 33.5076 21.7477 33.6057 19.3708C33.6101 19.2705 33.5299 19.1857 33.4273 19.1857Z" fill="white"/>
<path fill-rule="evenodd" clip-rule="evenodd" d="M56.2789 27.6949L56.2789 21.6266L59.9355 21.6266L59.9355 10.9546L56.2789 10.9546L56.2789 5.08083C56.2789 2.26875 54.3227 -2.55321e-07 51.9038 -3.65356e-07L4.37891 -2.5272e-06C1.95998 -2.63724e-06 -7.72469e-06 2.26875 -7.84281e-06 5.08083L-8.79252e-06 27.6913C-8.91002e-06 30.4887 1.95997 32.7648 4.37891 32.7648L51.9038 32.7648C54.3265 32.7648 56.2789 30.4887 56.2789 27.6949ZM5.6166 29.424C4.32624 29.424 3.28418 28.2346 3.28418 26.7808L3.28418 5.93253C3.28418 4.48244 4.32624 3.293 5.6166 3.293L50.5382 3.293C51.8285 3.293 52.8743 4.48244 52.8743 5.93253L52.8743 26.7808C52.8743 28.2346 51.8285 29.424 50.5382 29.424L5.6166 29.424Z" fill="white"/>
</svg>
