<svg width="60" height="33" viewBox="0 0 60 33" fill="none" xmlns="http://www.w3.org/2000/svg">
<path fill-rule="evenodd" clip-rule="evenodd" d="M56.2789 27.6949L56.2789 21.6266L59.9355 21.6266L59.9355 10.9546L56.2789 10.9546L56.2789 5.08083C56.2789 2.26875 54.3227 -2.55321e-07 51.9038 -3.65356e-07L4.37891 -2.5272e-06C1.95998 -2.63724e-06 -7.72469e-06 2.26875 -7.84281e-06 5.08083L-8.79252e-06 27.6913C-8.91002e-06 30.4887 1.95997 32.7648 4.37891 32.7648L51.9038 32.7648C54.3265 32.7648 56.2789 30.4887 56.2789 27.6949ZM5.6166 29.424C4.32624 29.424 3.28418 28.2346 3.28418 26.7808L3.28418 5.93253C3.28418 4.48244 4.32624 3.293 5.6166 3.293L50.5382 3.293C51.8285 3.293 52.8743 4.48244 52.8743 5.93253L52.8743 26.7808C52.8743 28.2346 51.8285 29.424 50.5382 29.424L5.6166 29.424Z" fill="white"/>
<path d="M41.2198 15.9551L36.2965 15.9551C36.2376 15.9551 36.1895 16.0032 36.1895 16.0621L36.1895 16.7043C36.1895 16.7631 36.2376 16.8113 36.2965 16.8113L41.2198 16.8113C41.2786 16.8113 41.3268 16.7631 41.3268 16.7043L41.3268 16.0621C41.3268 16.0032 41.2786 15.9551 41.2198 15.9551Z" fill="white"/>
<path d="M38.7582 10.3887C35.4484 10.3887 32.7646 13.0724 32.7646 16.3822C32.7646 19.6921 35.4484 22.3758 38.7582 22.3758C42.068 22.3758 44.7518 19.6921 44.7518 16.3822C44.7518 13.0724 42.068 10.3887 38.7582 10.3887ZM38.7582 21.359C36.0103 21.359 33.7814 19.1302 33.7814 16.3822C33.7814 13.6343 36.0103 11.4054 38.7582 11.4054C41.5061 11.4054 43.735 13.6343 43.735 16.3822C43.735 19.1302 41.5061 21.359 38.7582 21.359Z" fill="white"/>
<path d="M20.4419 15.955L18.4084 15.955L18.4084 13.9215C18.4084 13.8626 18.3602 13.8145 18.3014 13.8145L17.6592 13.8145C17.6003 13.8145 17.5522 13.8626 17.5522 13.9215L17.5522 15.955L15.5186 15.955C15.4598 15.955 15.4116 16.0032 15.4116 16.062L15.4116 16.7042C15.4116 16.7631 15.4598 16.8112 15.5186 16.8112L17.5522 16.8112L17.5522 18.8448C17.5522 18.9036 17.6003 18.9518 17.6592 18.9518L18.3014 18.9518C18.3602 18.9518 18.4084 18.9036 18.4084 18.8448L18.4084 16.8112L20.4419 16.8112C20.5008 16.8112 20.549 16.7631 20.549 16.7042L20.549 16.062C20.549 16.0032 20.5008 15.955 20.4419 15.955Z" fill="white"/>
<path d="M17.9804 10.3887C14.6705 10.3887 11.9868 13.0724 11.9868 16.3822C11.9868 19.6921 14.6705 22.3758 17.9804 22.3758C21.2902 22.3758 23.9739 19.6921 23.9739 16.3822C23.9739 13.0724 21.2902 10.3887 17.9804 10.3887ZM17.9804 21.359C15.2324 21.359 13.0036 19.1302 13.0036 16.3822C13.0036 13.6343 15.2324 11.4054 17.9804 11.4054C20.7283 11.4054 22.9572 13.6343 22.9572 16.3822C22.9572 19.1302 20.7283 21.359 17.9804 21.359Z" fill="white"/>
</svg>
