<svg width="30" height="36" viewBox="0 0 30 36" fill="none" xmlns="http://www.w3.org/2000/svg">
<path d="M21.9082 11.6147C21.9082 15.9984 15.7585 27.991 13.1799 32.8299C13.0799 33.0324 12.9236 33.2024 12.7296 33.3201C12.5356 33.4377 12.3117 33.4981 12.0843 33.4941C11.8569 33.4902 11.6354 33.422 11.4456 33.2977C11.2559 33.1734 11.1058 32.9981 11.0129 32.7922C8.61954 27.9267 2.97008 15.9889 2.97008 11.6163C2.87023 10.3228 3.04098 9.02288 3.47161 7.79793C3.90224 6.57298 4.58346 5.44946 5.47258 4.49782C6.36169 3.54617 7.43952 2.78692 8.63846 2.26769C9.8374 1.74847 11.1316 1.48047 12.4399 1.48047C13.7482 1.48047 15.0424 1.74847 16.2414 2.26769C17.4403 2.78692 18.5181 3.54617 19.4073 4.49782C20.2964 5.44946 20.9776 6.57298 21.4082 7.79793C21.8389 9.02288 22.0096 10.3228 21.9097 11.6163L21.9082 11.6147Z" fill="#1F97EF" stroke="#1F97EF" stroke-width="2" stroke-miterlimit="10" stroke-linecap="round"/>
<path d="M12.551 17.243C15.6108 17.243 18.0912 14.7835 18.0912 11.7497C18.0912 8.71579 15.6108 6.25635 12.551 6.25635C9.49119 6.25635 7.01074 8.71579 7.01074 11.7497C7.01074 14.7835 9.49119 17.243 12.551 17.243Z" fill="white"/>
</svg>
