<svg width="11" height="16" viewBox="0 0 11 16" fill="none" xmlns="http://www.w3.org/2000/svg">
<g clip-path="url(#clip0)">
<path d="M9.04012 8.008L0.370306 1.319C0.22495 1.20681 0.131815 1.04359 0.111395 0.865263C0.0909752 0.686933 0.144939 0.50809 0.261416 0.368084C0.377894 0.228077 0.547344 0.138377 0.732487 0.118709C0.917632 0.0990392 1.1033 0.151017 1.24865 0.263209L10.6033 7.48826C10.6854 7.55135 10.7518 7.63147 10.7974 7.72266C10.843 7.81385 10.8667 7.91377 10.8667 8.01499C10.8667 8.11621 10.843 8.21613 10.7974 8.30732C10.7518 8.39851 10.6854 8.47863 10.6033 8.54172L1.24865 15.7411C1.17694 15.7987 1.094 15.842 1.00471 15.8683C0.91542 15.8947 0.821566 15.9036 0.728654 15.8945C0.635742 15.8855 0.545641 15.8587 0.463629 15.8156C0.381616 15.7726 0.309345 15.7143 0.251047 15.644C0.192749 15.5737 0.149598 15.493 0.124125 15.4064C0.0986519 15.3199 0.0913706 15.2293 0.102703 15.14C0.114035 15.0508 0.143752 14.9645 0.190119 14.8865C0.236486 14.8084 0.298564 14.74 0.37272 14.6853L9.04012 8.008Z" fill="#1F97EF" stroke="#1F97EF" stroke-miterlimit="10"/>
</g>
<defs>
<clipPath id="clip0">
<rect width="11" height="16" fill="white" transform="translate(11 16) rotate(-180)"/>
</clipPath>
</defs>
</svg>
