<svg width="11" height="16" viewBox="0 0 11 16" fill="none" xmlns="http://www.w3.org/2000/svg">
<g clip-path="url(#clip0)">
<path d="M1.95988 7.992L10.6297 14.681C10.7751 14.7932 10.8682 14.9564 10.8886 15.1347C10.909 15.3131 10.8551 15.4919 10.7386 15.6319C10.6221 15.7719 10.4527 15.8616 10.2675 15.8813C10.0824 15.901 9.8967 15.849 9.75135 15.7368L0.396746 8.51174C0.314565 8.44865 0.248205 8.36853 0.202596 8.27734C0.156986 8.18615 0.133301 8.08623 0.133301 7.98501C0.133301 7.88379 0.156986 7.78387 0.202596 7.69268C0.248205 7.60149 0.314565 7.52137 0.396746 7.45828L9.75135 0.258862C9.82306 0.201253 9.906 0.158014 9.99529 0.131674C10.0846 0.105335 10.1784 0.0964322 10.2713 0.105479C10.3643 0.114525 10.4544 0.141339 10.5364 0.184357C10.6184 0.227376 10.6907 0.285731 10.749 0.355999C10.8073 0.426267 10.8504 0.507037 10.8759 0.593575C10.9013 0.680112 10.9086 0.770673 10.8973 0.859956C10.886 0.94924 10.8562 1.03545 10.8099 1.11353C10.7635 1.19161 10.7014 1.25999 10.6273 1.31466L1.95988 7.992Z" fill="#1F97EF" stroke="#1F97EF" stroke-miterlimit="10"/>
</g>
<defs>
<clipPath id="clip0">
<rect width="11" height="16" fill="white"/>
</clipPath>
</defs>
</svg>
