<svg width="104" height="104" viewBox="0 0 104 102" fill="none" xmlns="http://www.w3.org/2000/svg">
<path d="M85.4961 2.76758C87.7598 2.76758 89.5952 4.60302 89.5952 6.86664V25.997V30.096C89.5952 32.3605 87.7598 34.1951 85.4961 34.1951H64.9147L57.9353 44.5918C57.183 45.7123 55.4345 45.1801 55.4345 43.8305V34.1967H51.3354C49.0718 34.1967 47.2363 32.3613 47.2363 30.0976V6.86664C47.2363 4.6022 49.0718 2.76758 51.3354 2.76758H58.1677H85.4961Z" fill="#1F97EF" fill-opacity="0.21"/>
<path d="M96.3203 10.2953C95.2729 10.2953 94.4239 11.1443 94.4239 12.1917C94.4239 13.239 95.2738 14.088 96.3203 14.088C98.4628 14.088 100.205 15.8308 100.205 17.9726V66.179H55.0648C55.0688 65.2081 55.0745 64.0763 55.0761 63.9674V63.6782C55.055 60.6922 54.0353 57.9395 51.9529 55.2533C50.0411 52.8191 47.6222 51.684 45.0612 50.4815C44.3202 50.1338 43.5524 49.7738 42.7611 49.3635C42.0266 48.9833 41.1312 49.1206 40.547 49.7064L34.1713 56.0853L27.7981 49.7072C27.2561 49.1645 26.4396 49.0028 25.7335 49.2937C25.0283 49.5845 18.7712 52.2187 16.3808 55.2631C14.3065 57.9387 13.286 60.6914 13.2657 63.6652V63.9674C13.2673 64.0787 13.2722 65.2097 13.2762 66.1798H3.79356V17.9734C3.79356 15.8317 5.53556 14.0888 7.67812 14.0888H41.1247C42.172 14.0888 43.0211 13.2398 43.0211 12.1925C43.0211 11.1452 42.1712 10.2961 41.1247 10.2961H7.67812C3.44419 10.2961 0 13.7411 0 17.9742V73.8588C0 78.0927 3.44419 81.5369 7.67812 81.5369H38.5401V89.2752C38.5401 89.2857 38.5434 89.2955 38.5434 89.3052H34.6556C34.1526 89.3052 33.67 89.5051 33.3149 89.861L29.4613 93.7155C29.1054 94.0713 28.9055 94.5532 28.9055 95.0569V99.2315C28.9055 100.28 29.7554 101.128 30.8019 101.128H75.1237C76.1711 101.128 77.0201 100.279 77.0201 99.2315V95.0569C77.0201 94.554 76.8203 94.0713 76.4644 93.7155L72.6107 89.861C72.2548 89.5051 71.7722 89.3052 71.2701 89.3052H67.3822C67.3822 89.2947 67.3855 89.2849 67.3855 89.2752V81.5369H96.3211C100.555 81.5369 103.999 78.0919 103.999 73.8588V17.9734C103.998 13.7395 100.555 10.2953 96.3203 10.2953ZM17.0592 63.9113V63.7058C17.0739 61.5819 17.8336 59.5807 19.3724 57.5966C20.5059 56.1536 23.6836 54.3872 26.0309 53.305L32.8299 60.1088C33.1866 60.4647 33.6684 60.6654 34.1721 60.6654C34.6759 60.6654 35.1577 60.4655 35.5127 60.1097L42.2646 53.3545C42.666 53.5487 43.0609 53.734 43.4484 53.9168C45.7763 55.0088 47.6149 55.8725 48.9621 57.5877C50.5083 59.5823 51.2671 61.5835 51.2826 63.7212V63.9122C51.2809 64.008 51.2761 65.1845 51.2712 66.1807H17.0698C17.0658 65.1837 17.0601 64.0072 17.0592 63.9113ZM73.2266 95.841V97.3335H32.6982V95.841L35.4404 93.098H70.4836L73.2266 95.841ZM63.5944 89.3044H42.3304C42.3304 89.2938 42.3337 89.2841 42.3337 89.2743V81.5361H63.5911V89.2743C63.5911 89.2841 63.5944 89.2938 63.5944 89.3044ZM96.3203 77.7425H65.4875H40.4365H7.67812C5.53556 77.7425 3.79356 75.9997 3.79356 73.858V69.9734H100.205V73.858C100.205 75.9997 98.4628 77.7425 96.3203 77.7425ZM75.0035 18.0262C75.0035 16.9781 75.8534 16.1298 76.8999 16.1298H81.796C82.8433 16.1298 83.6924 16.9789 83.6924 18.0262C83.6924 19.0743 82.8425 19.9226 81.796 19.9226H76.8999C75.8534 19.9234 75.0035 19.0743 75.0035 18.0262ZM64.0713 18.0262C64.0713 16.9781 64.9212 16.1298 65.9677 16.1298H70.8638C71.9111 16.1298 72.7602 16.9789 72.7602 18.0262C72.7602 19.0743 71.9103 19.9226 70.8638 19.9226H65.9677C64.9212 19.9234 64.0713 19.0743 64.0713 18.0262ZM51.3354 36.093H53.5381V43.832C53.5381 45.2783 54.4676 46.5328 55.8512 46.9537C56.1697 47.0503 56.4931 47.0975 56.8116 47.0975C57.876 47.0975 58.89 46.5742 59.5099 45.6504L65.9262 36.093H85.4969C88.8038 36.093 91.4932 33.4036 91.4932 30.0975V6.86653C91.4932 3.56047 88.8038 0.871094 85.4969 0.871094H51.3354C48.0285 0.871094 45.3391 3.56047 45.3391 6.86653V30.0967C45.3391 33.4036 48.0285 36.093 51.3354 36.093ZM49.1327 6.86653C49.1327 5.65184 50.1207 4.66384 51.3354 4.66384H85.4969C86.7116 4.66384 87.6996 5.65184 87.6996 6.86653V30.0967C87.6996 31.3114 86.7116 32.2994 85.4969 32.2994H64.9147C64.2826 32.2994 63.6919 32.6147 63.3401 33.1387L57.3316 42.0892V34.1966C57.3316 33.1485 56.4817 32.3002 55.4352 32.3002H51.3354C50.1207 32.3002 49.1327 31.3122 49.1327 30.0975V6.86653ZM53.1399 18.0262C53.1399 16.9781 53.9898 16.1298 55.0363 16.1298H59.9324C60.9798 16.1298 61.8288 16.9789 61.8288 18.0262C61.8288 19.0743 60.9789 19.9226 59.9324 19.9226H55.0363C53.989 19.9234 53.1399 19.0743 53.1399 18.0262ZM34.1697 30.156C28.5919 30.156 24.0541 34.6938 24.0541 40.2717C24.0541 45.8495 28.5919 50.3873 34.1697 50.3873C39.7475 50.3873 44.2853 45.8495 44.2853 40.2717C44.2853 34.6938 39.7475 30.156 34.1697 30.156ZM34.1697 46.5945C30.6841 46.5945 27.8476 43.7581 27.8476 40.2725C27.8476 36.7868 30.6841 33.9504 34.1697 33.9504C37.6553 33.9504 40.4918 36.7868 40.4918 40.2725C40.4918 43.7581 37.6561 46.5945 34.1697 46.5945Z" fill="#2D2D2D"/>
</svg>
