<svg width="104" height="104" viewBox="0 0 121 89" fill="none" xmlns="http://www.w3.org/2000/svg">
<path d="M104.719 35.6375V38.5283C100.525 39.9538 97.042 42.8304 94.1512 47.2668L87.0529 50.0498C88.935 46.9038 89.9437 43.287 89.9437 39.5899C89.9437 28.3634 80.8148 19.2354 69.5892 19.2354C58.3627 19.2354 49.2347 28.3643 49.2347 39.5899C49.2347 39.8319 49.2347 40.0607 49.2612 40.3027C44.6093 40.1278 39.4337 40.9615 34.4453 42.319V35.6375H41.3688C42.3235 35.6375 43.1431 34.9787 43.3454 34.0513C44.0175 30.9592 45.2408 28.0278 46.9622 25.3393C47.4727 24.5462 47.3658 23.4978 46.6937 22.8248L41.7866 17.9177L47.6891 12.0151L52.5963 16.9222C53.2684 17.5944 54.3167 17.7021 55.1108 17.1907C57.8134 15.4561 60.7439 14.2461 63.8228 13.5739C64.7501 13.3726 65.409 12.5521 65.409 11.5973V4.67383H73.758V11.5973C73.758 12.5521 74.4169 13.3716 75.3443 13.5739C78.4364 14.2461 81.3668 15.4561 84.0695 17.1907C84.8626 17.7012 85.911 17.5944 86.584 16.9222L91.4779 12.0151L97.3804 17.9177L92.4866 22.8248C91.8144 23.4969 91.7067 24.5452 92.2181 25.3393C93.9386 28.0278 95.1627 30.9592 95.8348 34.0513C96.0362 34.9787 96.8567 35.6375 97.7973 35.6375H104.719Z" fill="#1F97EF" fill-opacity="0.21"/>
<path d="M120.696 41.3147C118.835 38.3199 114.282 36.935 108.756 37.6194V33.6217C108.756 32.5081 107.854 31.6053 106.74 31.6053H99.3807C98.7048 29.1485 97.7236 26.788 96.4512 24.558L101.662 19.3465C102.449 18.5591 102.449 17.282 101.662 16.4945L92.9044 7.73715C92.1169 6.9497 90.8408 6.9497 90.0524 7.73715L84.8418 12.9477C82.6118 11.6763 80.2523 10.695 77.7954 10.0182V2.65893C77.7954 1.54535 76.8927 0.642578 75.7791 0.642578H63.3936C62.28 0.642578 61.3773 1.54535 61.3773 2.65893V10.0182C58.9194 10.695 56.559 11.6753 54.3299 12.9477L49.1194 7.73715C48.3319 6.9497 47.0558 6.9497 46.2674 7.73715L37.5109 16.4936C36.7235 17.281 36.7235 18.5581 37.5109 19.3456L42.7215 24.5571C41.4491 26.788 40.4679 29.1475 39.792 31.6044H32.4327C31.3191 31.6044 30.4164 32.5072 30.4164 33.6208V43.5683C26.0245 45.0486 21.9539 46.8702 18.7021 48.7089V45.6319C18.7021 44.4276 18.2096 43.245 17.3531 42.3876C16.5023 41.5359 15.3197 41.0481 14.106 41.0481H4.58382C3.38422 41.0481 2.20447 41.5415 1.34802 42.4008C0.489673 43.261 -0.000943949 44.4398 1.36354e-06 45.6328V83.7554C1.36354e-06 84.9569 0.490619 86.1385 1.34802 86.9997C2.20069 87.8543 3.37666 88.3458 4.58288 88.3506H14.105C15.3093 88.3506 16.491 87.8599 17.3503 87.0007C18.2086 86.1433 18.7002 84.9607 18.7002 83.7554V81.031L78.5791 81.3742C78.5829 81.3742 78.5867 81.3742 78.5914 81.3742C78.8646 81.3742 79.1359 81.3193 79.3864 81.2116C89.627 76.8168 98.6935 68.9735 103.187 64.6894L103.325 64.558C105.357 62.6258 117.537 49.4245 120.766 43.3215C121.101 42.6882 121.075 41.9234 120.696 41.3147ZM34.45 35.639H41.3707C42.3188 35.639 43.1384 34.9792 43.3407 34.0528C44.0156 30.9644 45.2341 28.033 46.9622 25.3379C47.4736 24.5401 47.3611 23.4936 46.6909 22.8234L41.7885 17.921L47.6929 12.0156L52.5953 16.918C53.2646 17.5873 54.312 17.6998 55.1098 17.1893C57.8021 15.4613 60.7335 14.2428 63.8237 13.5678C64.7501 13.3655 65.41 12.546 65.41 11.5978V4.67623H73.7618V11.5978C73.7618 12.546 74.4216 13.3655 75.348 13.5678C78.4364 14.2437 81.3687 15.4613 84.0619 17.1893C84.8588 17.6998 85.9043 17.5873 86.5764 16.9171L91.4788 12.0147L97.3842 17.9201L92.4818 22.8224C91.8116 23.4927 91.6991 24.5391 92.2105 25.337C93.9376 28.0302 95.1561 30.9625 95.832 34.0518C96.0343 34.9782 96.8539 35.638 97.802 35.638H104.724V38.5402C100.534 39.9789 97.0448 42.8423 94.1588 47.2635L87.0321 50.0541C88.9161 46.909 89.9436 43.2913 89.9436 39.5913C89.9436 28.3667 80.8119 19.235 69.5873 19.235C58.3626 19.235 49.2309 28.3667 49.2309 39.5913C49.2309 39.8333 49.2461 40.0763 49.2555 40.3192C44.615 40.1472 39.4488 40.9724 34.451 42.3431V35.639H34.45ZM53.3402 40.7664C53.3118 40.3741 53.2627 39.9837 53.2627 39.5913C53.2627 30.5901 60.5851 23.2686 69.5854 23.2686C78.5857 23.2686 85.9081 30.591 85.9081 39.5913C85.9081 43.279 84.6423 46.8684 82.3537 49.744C81.2808 49.2534 80.0793 48.9358 78.7776 48.8289L63.4012 47.5603C62.8491 47.4157 61.3498 46.079 60.3582 45.1952C58.3078 43.3679 55.9833 41.2957 53.5746 40.8023C53.4981 40.7872 53.4168 40.7815 53.3402 40.7664ZM14.6684 83.7554C14.6684 83.8896 14.6004 84.0484 14.5001 84.1477C14.399 84.2489 14.2402 84.3169 14.106 84.3169H4.59138C4.4562 84.3169 4.30306 84.2517 4.20475 84.1515C4.10266 84.0494 4.03365 83.8887 4.03365 83.7554V45.6309C4.03365 45.5033 4.10077 45.353 4.20381 45.249C4.30495 45.1479 4.45431 45.0827 4.58382 45.0827H14.106C14.2496 45.0827 14.4037 45.1441 14.5001 45.2405C14.6013 45.3417 14.6684 45.4995 14.6684 45.6338V83.7554ZM100.547 61.6332L100.404 61.7693C93.2248 68.6153 85.15 74.2682 78.1792 77.3367L18.7021 76.9964V53.4175C27.4623 47.7229 43.3265 42.8205 52.7655 44.7546C54.1106 45.0297 56.0863 46.7908 57.6745 48.206C59.6946 50.0058 61.2893 51.4285 63.0079 51.5713L78.4458 52.8484C81.2137 53.0772 82.4369 54.4857 82.9758 55.6267C83.7282 57.2195 83.5656 59.1839 82.5617 60.6312C81.8423 61.6682 80.4017 62.8593 77.6366 62.6267L55.9521 60.8325L55.6184 64.8529L77.3039 66.6481C77.6319 66.6745 77.9561 66.6887 78.2747 66.6887C81.4642 66.6887 84.199 65.3483 85.876 62.9302C87.5719 60.4837 87.916 57.2252 86.8392 54.4611L96.2394 50.781C96.644 50.6222 96.9862 50.3377 97.2159 49.9699C100.306 45.0099 103.987 42.3715 108.802 41.6654C112.341 41.1473 115.085 41.7136 116.481 42.6655C112.82 48.4603 102.704 59.5819 100.547 61.6332Z" fill="#2D2D2D"/>
</svg>
