<svg width="104" height="104" viewBox="0 0 90 92" fill="none" xmlns="http://www.w3.org/2000/svg">
<path d="M83.1782 28.9853L79.7404 32.4231C75.7513 36.4121 70.1731 35.6014 64.9025 33.6392C64.9025 33.6392 58.4481 40.0936 49.9511 48.5906C48.4755 50.0662 46.9352 51.5907 45.3619 53.1633C33.5406 64.9853 19.5781 78.9471 13.2862 85.239C11.3887 87.1365 8.30814 87.1365 6.41064 85.239L4.1243 82.9368C2.2268 81.0393 2.2268 77.9746 4.1243 76.0613C10.4162 69.7693 24.3787 55.8234 36.2 44.0014C37.7726 42.4281 39.3136 40.8878 40.7892 39.4287C49.2704 30.9317 55.7241 24.4773 55.7241 24.4773C53.7619 19.2067 52.8218 13.4668 56.8108 9.49352L60.2486 6.05574C64.643 1.64477 70.319 0.558738 76.3026 3.75286L67.1242 12.9313C66.4917 13.5638 66.4751 14.5693 67.1076 15.2176L73.9832 22.0932C74.6157 22.7257 75.6694 22.7422 76.3019 22.1097L85.4638 12.9313C88.6594 18.9149 87.5726 24.5743 83.1782 28.9853Z" fill="#1F97EF" fill-opacity="0.21"/>
<path d="M69.0029 60.3367C69.0007 58.5571 69.0065 54.2554 69.0065 54.2546C69.0079 53.3404 68.3646 52.5512 67.4691 52.3679C60.7452 50.993 60.7444 50.9915 59.9905 51.7455L57.9082 53.8277L52.6686 48.588L65.3983 35.8626C68.8735 37.0621 75.9877 38.8942 81.1002 33.7818L84.5379 30.3433C84.5394 30.3426 84.5401 30.3411 84.5401 30.3411C89.6705 25.1913 90.625 18.5155 87.1599 12.0245C86.8732 11.4869 86.3485 11.1174 85.7454 11.0283C85.146 10.9406 84.5336 11.1404 84.1031 11.5724L75.1496 20.541L68.6917 14.0823L77.6609 5.11155C78.0915 4.68102 78.2934 4.07152 78.2029 3.46921C78.1137 2.86689 77.745 2.34221 77.2067 2.05614C70.6998 -1.41973 64.0212 -0.455167 58.8886 4.69539L55.4537 8.12958C50.3686 13.1939 52.2754 20.449 53.4994 23.9816C51.6113 25.8712 46.8 30.6854 40.7876 36.7078L32.8929 28.808C28.6206 24.5322 26.4744 22.3846 25.2971 21.3064L24.2535 16.0437C24.1543 15.5421 23.8589 15.1007 23.4341 14.8176L9.66718 5.63839C8.90386 5.12952 7.88971 5.23014 7.24139 5.87846L2.65146 10.4684C2.00314 11.1167 1.90252 12.133 2.41139 12.8949L11.5898 26.6467C11.873 27.0708 12.3115 27.3648 12.811 27.4647L17.981 28.5011L33.4808 44.001L2.75999 74.7074C0.127926 77.361 0.130801 81.662 2.76071 84.2919L5.05208 86.5991C6.37458 87.9216 8.1118 88.5836 9.84902 88.5836C11.5862 88.5836 13.3235 87.9216 14.646 86.5991L45.3675 55.8884L50.6079 61.1288L48.5235 63.2131C47.771 63.9657 47.771 63.9657 49.146 70.691C49.3285 71.5859 50.1163 72.2291 51.0298 72.2291C51.0312 72.2291 51.0312 72.2291 51.032 72.2291C51.032 72.2284 55.3186 72.222 57.1097 72.2256L74.8959 90.0117C76.1782 91.294 77.883 92.0005 79.6957 92.0005C81.5098 92.0005 83.2147 91.2947 84.4955 90.0125L86.7891 87.7196C88.0713 86.4374 88.7771 84.7325 88.7771 82.9191C88.7771 81.1057 88.0713 79.4016 86.7891 78.1193L69.0029 60.3367ZM19.3078 24.8456L14.347 23.8508L6.48599 12.0719L8.84493 9.71299L20.6375 17.5747L21.6171 22.5154C21.6976 22.9251 21.9061 23.2837 22.1957 23.5511C22.5127 23.8594 25.9001 27.2505 30.1731 31.5271L38.065 39.4232C37.8407 39.6468 37.6093 39.8782 37.3822 40.1046C37.1586 40.3274 36.9322 40.5538 36.7058 40.7788C36.5362 40.9477 36.3709 41.1123 36.2006 41.2826L20.2896 25.371C20.0215 25.1029 19.6801 24.9196 19.3078 24.8456ZM11.9269 83.8794C10.7805 85.0251 8.91608 85.0258 7.77543 83.8837L5.48405 81.5758C4.34268 80.4351 4.34555 78.5685 5.48405 77.42L37.5604 45.3601C39.1302 43.7889 40.6683 42.2508 42.141 40.7946C42.1439 40.7917 42.1468 40.7889 42.1496 40.786C50.6302 32.2896 57.0838 25.836 57.0838 25.8353C57.6157 25.3034 57.7889 24.5099 57.5273 23.8048C55.2453 17.6767 55.4494 13.5612 58.1706 10.8515L61.6105 7.41155C63.9867 5.02746 66.649 3.82714 69.4873 3.82714C70.6129 3.82714 71.7672 4.01546 72.9409 4.39424L65.7663 11.5695C64.3727 12.9596 64.3583 15.1518 65.7491 16.5763L72.6239 23.4519C73.2888 24.1175 74.1772 24.4883 75.1237 24.497C76.1099 24.4847 76.9889 24.1405 77.6624 23.4663L84.8218 16.2953C86.1472 20.4209 85.1309 24.2986 81.816 27.6271L78.3811 31.0627C75.6269 33.817 71.5573 34.0628 65.5737 31.8361C64.8679 31.5745 64.0751 31.7463 63.5432 32.2789L47.1335 48.6843L44.0026 51.8037C43.9932 51.813 43.9911 51.8253 43.9817 51.8353L11.9269 83.8794ZM53.3269 58.4083L48.0872 53.1686L49.8518 51.4048L49.9495 51.3071L55.1892 56.5467L53.5713 58.1646L53.3269 58.4083ZM84.07 84.9985L81.7765 87.292C80.666 88.4025 78.7268 88.4046 77.6157 87.292L59.3163 68.9933C58.8031 68.4435 58.7442 68.3802 53.3959 68.3802C53.1429 68.3802 52.8777 68.381 52.5996 68.381C52.3681 67.2389 52.1216 66.0227 51.9613 65.2134L56.2702 60.9045L59.271 57.9145C59.2897 57.8958 59.3026 57.8736 59.3206 57.8541L61.9915 55.1833C62.8015 55.3443 64.0169 55.5894 65.159 55.8215C65.1525 61.9963 65.1913 62.0301 65.7247 62.4908L84.0707 80.8383C84.6263 81.3932 84.9318 82.1321 84.9318 82.9184C84.9318 83.7047 84.6263 84.4436 84.07 84.9985ZM81.7492 83.1592C82.2502 83.6601 82.2502 84.4709 81.7492 84.9719C81.4991 85.222 81.1706 85.3478 80.8428 85.3478C80.5151 85.3478 80.1866 85.2227 79.9365 84.9719L60.444 65.4786C59.943 64.9777 59.943 64.1669 60.444 63.666C60.945 63.165 61.7557 63.165 62.2567 63.666L81.7492 83.1592ZM13.6627 78.2293C13.6627 79.6452 12.5149 80.7931 11.0989 80.7931C9.68299 80.7931 8.53514 79.6452 8.53514 78.2293C8.53514 76.8133 9.68299 75.6655 11.0989 75.6655C12.5149 75.6655 13.6627 76.8133 13.6627 78.2293Z" fill="#2D2D2D"/>
</svg>
