<svg width="12" height="20" viewBox="0 0 12 20" fill="none" xmlns="http://www.w3.org/2000/svg">
<path fill-rule="evenodd" clip-rule="evenodd" d="M10.706 -1.0334e-05H8.037C7.37796 -0.0470238 6.7165 0.0478992 6.09727 0.278351C5.47805 0.508803 4.91547 0.86942 4.44751 1.33586C3.97955 1.8023 3.61712 2.3637 3.38466 2.98218C3.1522 3.60065 3.05513 4.2618 3.10001 4.92099V7.19099H0.416C0.306637 7.19019 0.201415 7.2328 0.123428 7.30948C0.0454413 7.38615 0.00105632 7.49063 0 7.59999V10.889C0.00184275 10.9984 0.046966 11.1027 0.125488 11.179C0.204011 11.2553 0.309546 11.2973 0.419006 11.296H3.10001V19.596C3.10185 19.7056 3.14709 19.81 3.22583 19.8863C3.30457 19.9626 3.41037 20.0046 3.52 20.003H7.02C7.12956 20.0043 7.23519 19.9623 7.31387 19.886C7.39255 19.8098 7.4379 19.7055 7.44 19.596V11.296H10.577C10.6317 11.2973 10.6862 11.2877 10.7372 11.2678C10.7882 11.2479 10.8347 11.2181 10.8741 11.18C10.9135 11.142 10.9449 11.0965 10.9665 11.0461C10.9881 10.9958 10.9995 10.9417 11 10.887V7.59999C10.9995 7.54624 10.9884 7.49312 10.9673 7.44369C10.9462 7.39425 10.9155 7.34949 10.877 7.31199C10.7965 7.23451 10.6887 7.19177 10.577 7.19299H7.439V5.26699C7.439 4.34199 7.66601 3.87299 8.90401 3.87299H10.704C10.8136 3.87459 10.9194 3.83264 10.9982 3.75634C11.0769 3.68004 11.1222 3.57562 11.124 3.46599V0.41099C11.1229 0.301098 11.0783 0.196112 11 0.119062C10.9216 0.0420122 10.8159 -0.000809846 10.706 -1.0334e-05Z" fill="white"/>
</svg>
