<svg width="20" height="20" viewBox="0 0 20 20" fill="none" xmlns="http://www.w3.org/2000/svg">
<path fill-rule="evenodd" clip-rule="evenodd" d="M17.9469 13.9162C17.9425 14.4227 17.8383 14.9234 17.6404 15.3896C17.4424 15.8559 17.1546 16.2786 16.7932 16.6336C16.4319 16.9886 16.0042 17.2689 15.5345 17.4586C15.0649 17.6483 14.5625 17.7437 14.0559 17.7392H6.08594C5.57942 17.7437 5.07697 17.6483 4.6073 17.4586C4.13763 17.2689 3.70992 16.9886 3.3486 16.6336C2.98729 16.2786 2.69945 15.8559 2.5015 15.3896C2.30354 14.9234 2.19936 14.4227 2.19492 13.9162V6.08418C2.19936 5.57767 2.30354 5.07699 2.5015 4.61073C2.69945 4.14448 2.98729 3.72179 3.3486 3.36678C3.70992 3.01178 4.13763 2.73143 4.6073 2.54173C5.07697 2.35203 5.57942 2.2567 6.08594 2.26118H14.0559C14.5625 2.2567 15.0649 2.35203 15.5345 2.54173C16.0042 2.73143 16.4319 3.01178 16.7932 3.36678C17.1546 3.72179 17.4424 4.14448 17.6404 4.61073C17.8383 5.07699 17.9425 5.57767 17.9469 6.08418V13.9152V13.9162ZM14.0559 0.31618H6.08594C4.54202 0.304451 3.05646 0.905525 1.95511 1.98757C0.853753 3.06962 0.226515 4.5443 0.210938 6.08818V13.9192C0.226515 15.4631 0.853753 16.9377 1.95511 18.0198C3.05646 19.1018 4.54202 19.7029 6.08594 19.6912H14.0559C15.5998 19.7029 17.0852 19.1018 18.1864 18.0197C19.2876 16.9377 19.9146 15.463 19.9299 13.9192V6.08418C19.9146 4.54039 19.2876 3.06571 18.1864 1.98363C17.0852 0.901558 15.5998 0.300452 14.0559 0.31218V0.31618ZM10.0709 13.0662C9.46761 13.0557 8.88084 12.8673 8.38422 12.5246C7.88759 12.1819 7.50323 11.7001 7.27942 11.1398C7.0556 10.5794 7.0023 9.96544 7.12616 9.37489C7.25002 8.78434 7.54554 8.24353 7.97565 7.82032C8.40575 7.39712 8.95129 7.11038 9.54376 6.99609C10.1362 6.88179 10.7493 6.94504 11.3059 7.17789C11.8626 7.41074 12.3381 7.80282 12.6727 8.30492C13.0074 8.80702 13.1862 9.39678 13.1869 10.0002C13.1795 10.8194 12.8471 11.6021 12.2628 12.1763C11.6785 12.7505 10.8901 13.0691 10.0709 13.0622V13.0662ZM10.0709 4.99318C8.73062 4.98305 7.441 5.50491 6.48492 6.44429C5.52885 7.38368 4.98438 8.66391 4.97092 10.0042C4.97092 11.3568 5.50826 12.654 6.46469 13.6104C7.42113 14.5669 8.71832 15.1042 10.0709 15.1042C11.4235 15.1042 12.7207 14.5669 13.6772 13.6104C14.6336 12.654 15.1709 11.3568 15.1709 10.0042C15.1575 8.66391 14.613 7.38368 13.6569 6.44429C12.7009 5.50491 11.4112 4.98305 10.0709 4.99318ZM15.1809 3.83018C15.4173 3.83451 15.6471 3.90856 15.8415 4.04302C16.0359 4.17749 16.1863 4.36638 16.2738 4.586C16.3612 4.80562 16.3819 5.04617 16.3331 5.27748C16.2844 5.50879 16.1684 5.72055 15.9997 5.88618C15.8311 6.05181 15.6172 6.16393 15.3851 6.20848C15.1529 6.25303 14.9128 6.22801 14.6948 6.13658C14.4768 6.04514 14.2906 5.89136 14.1597 5.69452C14.0288 5.49769 13.959 5.26657 13.9589 5.03018C13.9604 4.87115 13.9931 4.71396 14.0553 4.56758C14.1175 4.4212 14.2079 4.28851 14.3214 4.17708C14.4349 4.06565 14.5692 3.97766 14.7166 3.91814C14.8641 3.85862 15.0219 3.82873 15.1809 3.83018Z" fill="white"/>
</svg>
