<svg width="22" height="20" viewBox="0 0 22 20" fill="none" xmlns="http://www.w3.org/2000/svg">
<path fill-rule="evenodd" clip-rule="evenodd" d="M21.5812 12.1908V19.6908H17.1502V12.6938C17.1502 10.9368 16.5102 9.73778 14.9062 9.73778C14.4101 9.7376 13.9259 9.88996 13.5193 10.1742C13.1127 10.4584 12.8034 10.8608 12.6332 11.3268C12.5192 11.668 12.4694 12.0274 12.4862 12.3868V19.6868H8.05415C8.05415 19.6868 8.11315 7.83978 8.05415 6.61378H12.4862V8.46678C12.4772 8.48078 12.4652 8.49578 12.4572 8.50978H12.4862V8.46678C12.894 7.77895 13.4809 7.21479 14.1844 6.83454C14.8878 6.45429 15.6813 6.27222 16.4802 6.30778C19.3962 6.30778 21.5802 8.17578 21.5802 12.1908H21.5812ZM3.41716 0.311778C3.10139 0.282161 2.78292 0.318372 2.48186 0.418122C2.1808 0.517872 1.9037 0.678992 1.66809 0.891297C1.43248 1.1036 1.24346 1.36248 1.11301 1.65156C0.982549 1.94064 0.913473 2.25364 0.910156 2.57078C0.911439 2.88341 0.977152 3.19242 1.10318 3.47853C1.22921 3.76464 1.41285 4.0217 1.64265 4.23367C1.87246 4.44564 2.14348 4.60798 2.43881 4.71054C2.73414 4.8131 3.04744 4.85369 3.35916 4.82978H3.38815C3.70392 4.85939 4.02241 4.82318 4.32347 4.72343C4.62453 4.62368 4.90162 4.46256 5.13724 4.25026C5.37285 4.03795 5.56186 3.77908 5.69232 3.49C5.82278 3.20092 5.89184 2.88792 5.89516 2.57078C5.893 2.25585 5.8257 1.94478 5.69751 1.65713C5.56932 1.36947 5.383 1.11144 5.15027 0.899274C4.91753 0.687107 4.64341 0.525386 4.34515 0.42428C4.04689 0.323174 3.73094 0.284871 3.41716 0.311778ZM1.17316 19.6878H5.60316V6.61378H1.17316V19.6878Z" fill="white"/>
</svg>
