<svg width="104" height="104" viewBox="0 0 96 96" fill="none" xmlns="http://www.w3.org/2000/svg">
<path d="M87.9716 38.3022H85.0556C84.1626 38.301 83.3733 37.7236 83.102 36.8727C82.4725 34.8969 81.6776 32.9777 80.7247 31.1362C80.3136 30.3429 80.4634 29.375 81.0941 28.7427L83.157 26.6798C85.4517 24.3839 85.4517 20.6625 83.157 18.3667L77.589 12.7987C75.2931 10.5045 71.5723 10.5045 69.2765 12.7987L67.2136 14.8616C66.5812 15.4929 65.6133 15.6421 64.8201 15.2316C62.9785 14.2786 61.0593 13.4832 59.0835 12.8542C58.2326 12.583 57.6552 11.7936 57.6541 10.9006V7.98516C57.6541 4.73801 55.0215 2.10547 51.7744 2.10547H43.8978C40.6507 2.10547 38.0181 4.73801 38.0181 7.98516V10.9006C38.017 11.7936 37.4396 12.583 36.5887 12.8542C34.6146 13.4843 32.697 14.2797 30.8571 15.2327C30.0639 15.6432 29.096 15.494 28.4636 14.8627L26.4008 12.7998C24.1049 10.5051 20.3835 10.5051 18.0877 12.7998L12.5191 18.3672C10.2244 20.6631 10.2244 24.3845 12.5191 26.6803L14.582 28.7432C15.2133 29.3756 15.3625 30.3435 14.952 31.1367C13.9991 32.9783 13.2042 34.8975 12.5746 36.8733C12.3034 37.7242 11.5141 38.3022 10.621 38.3027H7.70391C4.45677 38.3027 1.82422 40.9353 1.82422 44.1824V52.059C1.82422 55.3061 4.45677 57.9386 7.70391 57.9386H10.6193C11.5124 57.9398 12.3017 58.5172 12.573 59.3681C13.2031 61.3422 13.9991 63.2592 14.952 65.0991C15.3625 65.8923 15.2133 66.8602 14.582 67.4926L12.5191 69.5555C10.2244 71.8513 10.2244 75.5727 12.5191 77.8686L18.0877 83.4371C20.3835 85.7324 24.1055 85.7324 26.4013 83.4371L28.4636 81.3748C29.096 80.7435 30.0639 80.5943 30.8571 81.0048C32.6987 81.9577 34.6179 82.7526 36.5937 83.3822C37.4446 83.6534 38.022 84.4427 38.0231 85.3358V88.2518C38.0231 91.4989 40.6557 94.1315 43.9028 94.1315H51.7794C55.0265 94.1315 57.6591 91.4989 57.6591 88.2518V85.3358C57.6602 84.4427 58.2376 83.6534 59.0885 83.3822C61.0643 82.7532 62.9835 81.9577 64.8251 81.0048C65.6183 80.5943 66.5862 80.7435 67.2186 81.3748L69.2814 83.4371C71.5773 85.7318 75.2987 85.7318 77.5946 83.4371L83.1631 77.8686C85.4573 75.5727 85.4573 71.8519 83.1631 69.556L81.1002 67.4931C80.4695 66.8608 80.3197 65.8929 80.7308 65.0997C81.6837 63.2581 82.4786 61.3389 83.1081 59.3631C83.3794 58.5122 84.1687 57.9348 85.0618 57.9337H87.9777C91.2249 57.9337 93.8574 55.3011 93.8574 52.054V44.1774C93.8552 40.9303 91.2205 38.2999 87.9733 38.3022H87.9716Z" fill="white"/>
<path d="M47.8381 74.847C33.0768 74.8475 21.1099 62.8807 21.1094 48.1194C21.1088 33.358 33.0756 21.3912 47.837 21.3906C62.5983 21.3901 74.5652 33.3569 74.5657 48.1182C74.5491 62.8729 62.5928 74.8303 47.8381 74.847Z" fill="#1F97EF" fill-opacity="0.21"/>
<path d="M47.8382 27.5469C36.4776 27.5469 27.2676 36.7569 27.2676 48.1175C27.2676 59.478 36.4776 68.688 47.8382 68.688C59.1987 68.688 68.4087 59.478 68.4087 48.1175C68.396 36.7619 59.1937 27.5596 47.8382 27.5469Z" fill="white"/>
<path d="M51.7761 95.516H43.8995C39.888 95.5121 36.637 92.261 36.6331 88.2495V85.3336C36.6331 85.044 36.4456 84.7883 36.1694 84.7018C34.1192 84.0483 32.1285 83.223 30.217 82.2351C29.9602 82.1003 29.6457 82.148 29.4405 82.3532L27.3776 84.4156C24.5387 87.2489 19.942 87.2489 17.1031 84.4156L11.539 78.8493C8.70678 76.0104 8.70678 71.4142 11.539 68.5753L13.6019 66.5125C13.806 66.3072 13.8543 65.9933 13.7206 65.7359C12.7327 63.825 11.9073 61.8337 11.2539 59.7841C11.1668 59.5079 10.9111 59.3204 10.6216 59.3209H7.70391C3.69241 59.317 0.441383 56.066 0.4375 52.0545V44.178C0.441383 40.1665 3.69241 36.9154 7.70391 36.9116H10.6193C10.9089 36.9116 11.1652 36.7241 11.2517 36.4478C11.9051 34.3977 12.7305 32.4069 13.7184 30.4955C13.8532 30.2387 13.8049 29.9236 13.5997 29.7189L11.5374 27.6566C8.70456 24.8177 8.70456 20.221 11.5374 17.3821L17.1064 11.8136C18.466 10.4469 20.3158 9.68028 22.2434 9.68583C24.1709 9.68084 26.0208 10.4469 27.3803 11.8136L29.4427 13.8765C29.6473 14.0823 29.9624 14.13 30.2192 13.9952C32.1307 13.0073 34.122 12.1819 36.1721 11.5285C36.4484 11.442 36.6364 11.1857 36.6359 10.8962V7.98516C36.6397 3.97366 39.8908 0.722633 43.9023 0.71875H51.7788C55.7903 0.722633 59.0414 3.97366 59.0452 7.98516V10.9006C59.0447 11.1901 59.2327 11.4464 59.509 11.5329C61.5585 12.1864 63.5499 13.0117 65.4607 13.9996C65.7181 14.1333 66.0321 14.0851 66.2373 13.8809L68.3002 11.818C71.1391 8.98581 75.7347 8.98581 78.5736 11.818L84.1398 17.3866C86.9721 20.2254 86.9721 24.8216 84.1398 27.6605L82.077 29.7234C81.8717 29.928 81.8235 30.2431 81.9583 30.4999C82.9467 32.4114 83.7721 34.4027 84.4255 36.4528C84.5121 36.7291 84.7683 36.9171 85.0579 36.9165H87.9739C91.9854 36.9204 95.2364 40.1715 95.2402 44.183V52.0595C95.2364 56.071 91.9854 59.322 87.9739 59.3259H85.0579C84.7683 59.3254 84.5126 59.5128 84.4255 59.7891C83.7721 61.8392 82.9467 63.8305 81.9588 65.742C81.8235 65.9988 81.8717 66.3133 82.077 66.5186L84.1404 68.5814C86.9721 71.4209 86.9721 76.0159 84.1404 78.8554L78.5719 84.4239C75.733 87.2561 71.1369 87.2561 68.298 84.4239L66.2351 82.3615C66.0299 82.1574 65.7159 82.1092 65.4585 82.2428C63.5476 83.2307 61.5563 84.0561 59.5067 84.7095C59.2305 84.7961 59.043 85.0523 59.043 85.3419V88.2579C59.0347 92.2666 55.7848 95.5126 51.7761 95.516ZM29.9086 79.3851C30.4605 79.3856 31.0041 79.5188 31.4939 79.7734C33.2667 80.6897 35.1132 81.4546 37.0142 82.0609C38.4419 82.5113 39.4121 83.8364 39.4093 85.3336V88.2495C39.411 90.7301 41.4217 92.7409 43.9023 92.7425H51.7788C54.2594 92.7409 56.2701 90.7301 56.2718 88.2495V85.3336C56.2696 83.8364 57.2392 82.5113 58.6669 82.0609C60.5678 81.4546 62.4144 80.6897 64.1866 79.7734C65.5157 79.0811 67.1403 79.3329 68.1976 80.3946L70.2605 82.4569C72.0149 84.2103 74.8583 84.2103 76.6127 82.4569L82.1812 76.8884C83.9318 75.1329 83.9318 72.2923 82.1812 70.5367L80.1178 68.4738C79.0556 67.4166 78.8043 65.7914 79.4977 64.4623C80.4135 62.6901 81.1789 60.8436 81.7852 58.9426C82.2351 57.5149 83.5608 56.5447 85.0579 56.5475H87.9739C90.4544 56.5458 92.4651 54.5351 92.4668 52.0545V44.178C92.4651 41.6974 90.4544 39.6867 87.9739 39.685H85.0579C83.5608 39.6872 82.2356 38.7171 81.7852 37.2893C81.1789 35.3884 80.414 33.5418 79.4977 31.7696C78.8054 30.4406 79.0567 28.8164 80.1178 27.7587L82.1812 25.6958C83.9341 23.9413 83.9341 21.0985 82.1812 19.344L76.6083 13.7794C74.8533 12.0283 72.0116 12.0283 70.2566 13.7794L68.1937 15.8429C67.1365 16.9045 65.5118 17.1558 64.1827 16.4636C62.4105 15.5472 60.564 14.7817 58.6631 14.176C57.2353 13.7256 56.2651 12.4005 56.2679 10.9034V7.98516C56.2657 5.50459 54.2555 3.49441 51.7749 3.49219H43.8984C41.4178 3.49441 39.4076 5.50459 39.4054 7.98516V10.9006C39.4082 12.3977 38.438 13.7228 37.0103 14.1733C35.1094 14.7795 33.2628 15.5444 31.49 16.4608C30.161 17.1536 28.5363 16.9018 27.4791 15.8395L25.4206 13.7794C23.6662 12.0266 20.8234 12.0266 19.0689 13.7794L13.4998 19.3479C11.7487 21.103 11.7487 23.9452 13.4998 25.7002L15.5622 27.7625C16.6244 28.8198 16.8757 30.445 16.1829 31.774C15.2665 33.5468 14.5016 35.3934 13.8953 37.2943C13.4449 38.7221 12.1198 39.6917 10.6227 39.6894H7.70391C5.22334 39.6917 3.21316 41.7018 3.21094 44.1824V52.059C3.21316 54.5395 5.22334 56.5497 7.70391 56.5519H10.6193C12.1159 56.5497 13.441 57.5193 13.892 58.9465C14.4977 60.848 15.2632 62.6945 16.1795 64.4673C16.8723 65.7964 16.6205 67.421 15.5588 68.4783L13.4998 70.535C11.7487 72.2901 11.7487 75.1323 13.4998 76.8873L19.0678 82.4558C20.8223 84.2098 23.6662 84.2098 25.4206 82.4558L27.483 80.3935C28.1253 79.7484 28.9984 79.3851 29.9086 79.3851Z" fill="#231F20"/>
<path d="M47.8395 76.2337C32.3121 76.2337 19.7246 63.6462 19.7246 48.1188C19.7246 32.5914 32.3121 20.0039 47.8395 20.0039C63.3669 20.0039 75.9544 32.5914 75.9544 48.1188C75.9372 63.639 63.3596 76.2165 47.8395 76.2337ZM47.8395 22.7773C33.8436 22.7773 22.498 34.1229 22.498 48.1188C22.498 62.1147 33.8436 73.4603 47.8395 73.4603C61.8354 73.4603 73.1809 62.1147 73.1809 48.1188C73.1649 34.1296 61.8287 22.7934 47.8395 22.7773Z" fill="#231F20"/>
<path d="M50.5925 59.4489H41.7846C41.0186 59.4489 40.3979 58.8282 40.3979 58.0621C40.3979 57.2961 41.0186 56.6754 41.7846 56.6754H50.5925C52.5728 56.6754 54.178 55.0702 54.178 53.0899C54.178 51.1097 52.5728 49.5044 50.5925 49.5044H45.085C41.5733 49.4717 38.7527 46.5984 38.7854 43.0867C38.8176 39.621 41.6193 36.8198 45.085 36.7871H52.89C53.6561 36.7871 54.2768 37.4078 54.2768 38.1738C54.2768 38.9399 53.6561 39.5605 52.89 39.5605H45.085C43.1048 39.585 41.5195 41.2102 41.5445 43.1904C41.5689 45.1357 43.1397 46.7071 45.085 46.731H50.5925C54.1042 46.731 56.9514 49.5776 56.9514 53.0899C56.9514 56.6022 54.1042 59.4489 50.5925 59.4489Z" fill="#231F20"/>
<path d="M47.8379 62.8506C47.0719 62.8506 46.4512 62.2299 46.4512 61.4639V34.7734C46.4512 34.0074 47.0719 33.3867 47.8379 33.3867C48.6039 33.3867 49.2246 34.0074 49.2246 34.7734V61.4639C49.2246 62.2299 48.6039 62.8506 47.8379 62.8506Z" fill="#231F20"/>
<path d="M47.8387 70.0748C35.7121 70.0753 25.8814 60.2446 25.8809 48.118C25.8803 35.9914 35.711 26.1607 47.8376 26.1602C59.9642 26.1596 69.7949 35.9903 69.7955 48.1169C69.7816 60.2379 59.9597 70.0609 47.8387 70.0748ZM47.8387 28.9336C37.2436 28.933 28.6549 37.5218 28.6543 48.1169C28.6537 58.712 37.2425 67.3008 47.8376 67.3013C58.4327 67.3019 67.0215 58.7131 67.022 48.118C67.0104 37.5279 58.4288 28.9452 47.8387 28.9336Z" fill="#231F20"/>
</svg>
