<svg width="43" height="65" viewBox="0 0 43 65" fill="none" xmlns="http://www.w3.org/2000/svg">
<path d="M7.65977 32.4669L41.5509 59.6409C42.1191 60.0967 42.4831 60.7598 42.563 61.4842C42.6428 62.2087 42.4318 62.9353 41.9765 63.504C41.5212 64.0728 40.8588 64.4372 40.1351 64.5171C39.4113 64.597 38.6855 64.3859 38.1173 63.9301L1.54935 34.5783C1.2281 34.322 0.968698 33.9965 0.790406 33.6261C0.612113 33.2556 0.519526 32.8497 0.519526 32.4385C0.519526 32.0273 0.612114 31.6213 0.790406 31.2509C0.968698 30.8804 1.22811 30.5549 1.54936 30.2986L38.1173 1.05099C38.3977 0.816956 38.7219 0.641296 39.0709 0.534293C39.42 0.427289 39.7869 0.391122 40.1501 0.427873C40.5133 0.464624 40.8655 0.573556 41.1861 0.748319C41.5067 0.923081 41.7892 1.16015 42.0171 1.44561C42.245 1.73108 42.4136 2.05921 42.5132 2.41076C42.6128 2.76232 42.6413 3.13023 42.597 3.49294C42.5527 3.85566 42.4365 4.20588 42.2552 4.52308C42.074 4.84027 41.8313 5.11807 41.5414 5.34017L7.65977 32.4669Z" fill="#1D1D1B" stroke="#1D1D1B" stroke-miterlimit="10"/>
</svg>
