<svg width="30" height="20" viewBox="0 0 30 20" fill="none" xmlns="http://www.w3.org/2000/svg">
<path fill-rule="evenodd" clip-rule="evenodd" d="M23.3548 0.000406199H6.43677C4.86133 -0.0180038 3.3431 0.590031 2.21588 1.69081C1.08866 2.79158 0.444765 4.29498 0.425781 5.87041V14.1314C0.445028 15.7067 1.08903 17.2098 2.21622 18.3104C3.34341 19.4109 4.8615 20.0188 6.43677 20.0004H23.3548C24.93 20.0185 26.448 19.4104 27.575 18.3096C28.702 17.2089 29.3458 15.7057 29.3648 14.1304V5.86941C29.3455 4.29433 28.7016 2.79134 27.5747 1.69081C26.4477 0.590278 24.9299 -0.0177379 23.3548 0.000406199ZM19.2898 10.4004L11.3768 14.0864C11.3289 14.1094 11.276 14.1199 11.223 14.1171C11.17 14.1143 11.1185 14.0982 11.0733 14.0704C11.0281 14.0425 10.9907 14.0037 10.9644 13.9576C10.9381 13.9115 10.9238 13.8595 10.9228 13.8064V6.20041C10.9237 6.14662 10.9383 6.09395 10.9652 6.04735C10.9921 6.00076 11.0304 5.96177 11.0765 5.93407C11.1226 5.90636 11.175 5.89084 11.2287 5.88898C11.2825 5.88711 11.3359 5.89896 11.3838 5.92341L19.2988 9.84441C19.3512 9.87 19.3953 9.91002 19.4258 9.95976C19.4563 10.0095 19.472 10.0669 19.4711 10.1253C19.4701 10.1836 19.4526 10.2405 19.4205 10.2892C19.3884 10.338 19.343 10.3765 19.2898 10.4004Z" fill="white"/>
</svg>
